SplineFontDB: 3.0
FontName: GOST2930-62PART1
FullName: GOST 2930-62 PART 1
FamilyName: GOST 2930-62 PART 1
Weight: Book
Copyright: Bce paa paea Hyeo e
Version: 1.00 May 8, 2005, initial release
ItalicAngle: 0
UnderlinePosition: -200
UnderlineWidth: 100
Ascent: 800
Descent: 200
InvalidEm: 0
sfntRevision: 0x00010000
LayerCount: 2
Layer: 0 1 "+BBcEMAQ0BD0EOAQ5 +BD8EOwQwBD0A" 1
Layer: 1 1 "+BB8ENQRABDUENAQ9BDgEOQAA +BD8EOwQwBD0A" 0
XUID: [1021 200 1631105240 8228]
StyleMap: 0x0000
FSType: 8
OS2Version: 1
OS2_WeightWidthSlopeOnly: 0
OS2_UseTypoMetrics: 0
CreationTime: 1115562651
ModificationTime: 1506153219
PfmFamily: 17
TTFWeight: 400
TTFWidth: 5
LineGap: 467
VLineGap: 0
Panose: 2 0 0 0 0 0 0 0 0 0
OS2TypoAscent: 800
OS2TypoAOffset: 0
OS2TypoDescent: -300
OS2TypoDOffset: 0
OS2TypoLinegap: 137
OS2WinAscent: 1200
OS2WinAOffset: 0
OS2WinDescent: 300
OS2WinDOffset: 0
HheadAscent: 1000
HheadAOffset: 0
HheadDescent: 0
HheadDOffset: 0
OS2SubXSize: 0
OS2SubYSize: 0
OS2SubXOff: 0
OS2SubYOff: 0
OS2SupXSize: 0
OS2SupYSize: 0
OS2SupXOff: 0
OS2SupYOff: 0
OS2StrikeYSize: 67
OS2StrikeYPos: 400
OS2Vendor: 'GOST'
OS2CodePages: 6000019f.dff70000
OS2UnicodeRanges: a00002af.500078fb.00000000.00000000
MarkAttachClasses: 1
DEI: 91125
ShortTable: maxp 16
  1
  0
  203
  72
  5
  0
  0
  2
  16
  47
  66
  0
  1036
  0
  0
  0
EndShort
LangName: 1033 "+BBIEQQQ1 +BD8EQAQwBDIEMAAA +BD8EQAQ4BD0EMAQ0BDsENQQ2BDAEQgAA +BB0EOAQ6BEMEOwQ1BD0EOgQ+ +BBgEOwRMBDUA" "" "Regular" "GOST 2930-62 PART 2:Version 1.00" "" "Version 1.00 May 8, 2005, initial release" "" "" "" "" "This font was created using Font Creator 5.0 from High-Logic.com"
Encoding: UnicodeBmp
UnicodeInterp: none
NameList: AGL For New Fonts
DisplaySize: -48
AntiAlias: 1
FitToEm: 0
WinInfo: 54 27 9
BeginPrivate: 0
EndPrivate
BeginChars: 65537 178

StartChar: .notdef
Encoding: 65536 -1 0
Width: 802
VWidth: 1365
Flags: W
LayerCount: 2
Fore
SplineSet
0 0 m 1,0,-1
 0 853 l 1,1,-1
 682 853 l 1,2,-1
 682 0 l 1,3,-1
 0 0 l 1,0,-1
21 21 m 1,4,-1
 661 21 l 1,5,-1
 661 832 l 1,6,-1
 21 832 l 1,7,-1
 21 21 l 1,4,-1
EndSplineSet
EndChar

StartChar: quotedbl
Encoding: 34 34 1
Width: 324
VWidth: 1365
Flags: W
LayerCount: 2
Fore
SplineSet
75 880 m 1,0,-1
 76 879 l 1,1,-1
 77 879 l 1,2,-1
 33 720 l 1,3,-1
 -21 720 l 1,4,-1
 -21 720 l 1,5,-1
 21 880 l 1,6,-1
 75 880 l 1,0,-1
129 880 m 1,7,-1
 183 880 l 1,8,-1
 183 879 l 1,9,-1
 183 879 l 1,10,-1
 141 720 l 1,11,-1
 87 720 l 1,12,-1
 86 720 l 1,13,-1
 85 720 l 1,14,-1
 129 880 l 1,7,-1
EndSplineSet
EndChar

StartChar: percent
Encoding: 37 37 2
Width: 641
VWidth: 1365
Flags: W
LayerCount: 2
Fore
SplineSet
522 800 m 1,0,-1
 60 0 l 1,1,-1
 0 0 l 1,2,-1
 462 800 l 1,3,-1
 522 800 l 1,0,-1
120 800 m 256,4,5
 170 800 170 800 205 765 c 128,-1,6
 240 730 240 730 240 680 c 256,7,8
 240 630 240 630 205 595 c 128,-1,9
 170 560 170 560 120 560 c 256,10,11
 70 560 70 560 35 595 c 128,-1,12
 0 630 0 630 0 680 c 256,13,14
 0 730 0 730 35 765 c 128,-1,15
 70 800 70 800 120 800 c 256,4,5
120 748 m 0,16,17
 92 748 92 748 72 728 c 128,-1,18
 52 708 52 708 52 680 c 0,19,20
 52 651 52 651 72 631.5 c 128,-1,21
 92 612 92 612 120 612 c 256,22,23
 148 612 148 612 168 632 c 128,-1,24
 188 652 188 652 188 680 c 0,25,26
 188 708 188 708 168.5 728 c 128,-1,27
 149 748 149 748 120 748 c 0,16,17
360 240 m 256,28,29
 410 240 410 240 445 205 c 128,-1,30
 480 170 480 170 480 120 c 256,31,32
 480 70 480 70 445 35 c 128,-1,33
 410 0 410 0 360 0 c 256,34,35
 310 0 310 0 275 35 c 128,-1,36
 240 70 240 70 240 120 c 256,37,38
 240 170 240 170 275 205 c 128,-1,39
 310 240 310 240 360 240 c 256,28,29
360 189 m 0,40,41
 332 189 332 189 312 169 c 128,-1,42
 292 149 292 149 292 121 c 0,43,44
 292 92 292 92 312 72 c 128,-1,45
 332 52 332 52 360 52 c 256,46,47
 388 52 388 52 408 72 c 128,-1,48
 428 92 428 92 428 121 c 0,49,50
 428 149 428 149 408.5 169 c 128,-1,51
 389 189 389 189 360 189 c 0,40,41
EndSplineSet
EndChar

StartChar: quotesingle
Encoding: 39 39 3
Width: 217
VWidth: 1365
Flags: W
LayerCount: 2
Fore
SplineSet
75 880 m 1,0,-1
 76 879 l 1,1,-1
 77 879 l 1,2,-1
 33 720 l 1,3,-1
 -21 720 l 1,4,-1
 -21 720 l 1,5,-1
 21 880 l 1,6,-1
 75 880 l 1,0,-1
EndSplineSet
EndChar

StartChar: asterisk
Encoding: 42 42 4
Width: 495
VWidth: 1365
Flags: W
LayerCount: 2
Fore
SplineSet
39 588 m 1,0,-1
 188 439 l 1,1,-1
 337 588 l 1,2,-1
 376 549 l 1,3,-1
 227 400 l 1,4,-1
 376 251 l 1,5,-1
 337 212 l 1,6,-1
 188 361 l 1,7,-1
 39 212 l 1,8,-1
 0 251 l 1,9,-1
 149 400 l 1,10,-1
 0 549 l 1,11,-1
 39 588 l 1,0,-1
EndSplineSet
EndChar

StartChar: plus
Encoding: 43 43 5
Width: 599
VWidth: 1365
Flags: W
LayerCount: 2
Fore
SplineSet
266 640 m 1,0,-1
 266 426 l 1,1,-1
 480 426 l 1,2,-1
 480 374 l 1,3,-1
 266 374 l 1,4,-1
 266 160 l 1,5,-1
 214 160 l 1,6,-1
 214 374 l 1,7,-1
 0 374 l 1,8,-1
 0 426 l 1,9,-1
 214 426 l 1,10,-1
 214 640 l 1,11,-1
 266 640 l 1,0,-1
EndSplineSet
EndChar

StartChar: comma
Encoding: 44 44 6
Width: 119
VWidth: 1365
Flags: W
LayerCount: 2
Fore
SplineSet
0 104 m 256,0,1
 21 104 21 104 36.5 88.5 c 128,-1,2
 52 73 52 73 52 52 c 0,3,4
 52 -13 52 -13 6.5 -58.5 c 128,-1,5
 -39 -104 -39 -104 -104 -104 c 1,6,7
 -61 -104 -61 -104 -30.5 -73.5 c 128,-1,8
 0 -43 0 -43 0 0 c 1,9,10
 -21 0 -21 0 -36.5 15.5 c 128,-1,11
 -52 31 -52 31 -52 52 c 128,-1,12
 -52 73 -52 73 -36.5 88.5 c 128,-1,13
 -21 104 -21 104 0 104 c 256,0,1
EndSplineSet
EndChar

StartChar: hyphen
Encoding: 45 45 7
AltUni2: 0000ad.ffffffff.0
Width: 599
VWidth: 1365
Flags: W
LayerCount: 2
Fore
SplineSet
0 426 m 1,0,-1
 480 426 l 1,1,-1
 480 374 l 1,2,-1
 0 374 l 1,3,-1
 0 426 l 1,0,-1
EndSplineSet
EndChar

StartChar: period
Encoding: 46 46 8
Width: 119
VWidth: 1365
Flags: W
LayerCount: 2
Fore
SplineSet
0 104 m 256,0,1
 13 104 13 104 25.5 97.5 c 128,-1,2
 38 91 38 91 45 78 c 128,-1,3
 52 65 52 65 52 52 c 256,4,5
 52 39 52 39 45 26.5 c 128,-1,6
 38 14 38 14 25.5 7 c 128,-1,7
 13 0 13 0 0 0 c 256,8,9
 -13 0 -13 0 -25.5 7 c 128,-1,10
 -38 14 -38 14 -45 26.5 c 128,-1,11
 -52 39 -52 39 -52 52 c 256,12,13
 -52 65 -52 65 -45 78 c 128,-1,14
 -38 91 -38 91 -25.5 97.5 c 128,-1,15
 -13 104 -13 104 0 104 c 256,0,1
EndSplineSet
EndChar

StartChar: slash
Encoding: 47 47 9
Width: 521
VWidth: 1365
Flags: W
LayerCount: 2
Fore
SplineSet
452 800 m 1,0,-1
 -10 0 l 1,1,-1
 -70 0 l 1,2,-1
 392 800 l 1,3,-1
 452 800 l 1,0,-1
EndSplineSet
EndChar

StartChar: zero
Encoding: 48 48 10
Width: 599
VWidth: 1365
Flags: W
LayerCount: 2
Fore
SplineSet
240 800 m 256,0,1
 339 800 339 800 409.5 729.5 c 128,-1,2
 480 659 480 659 480 560 c 2,3,-1
 480 240 l 2,4,5
 480 141 480 141 409.5 70.5 c 128,-1,6
 339 0 339 0 240 0 c 256,7,8
 141 0 141 0 70.5 70.5 c 128,-1,9
 0 141 0 141 0 240 c 2,10,-1
 0 560 l 2,11,12
 0 659 0 659 70.5 729.5 c 128,-1,13
 141 800 141 800 240 800 c 256,0,1
100 560 m 2,14,-1
 100 240 l 2,15,16
 100 182 100 182 141 141 c 128,-1,17
 182 100 182 100 240 100 c 256,18,19
 298 100 298 100 339 141 c 128,-1,20
 380 182 380 182 380 240 c 2,21,-1
 380 560 l 2,22,23
 380 618 380 618 339 659 c 128,-1,24
 298 700 298 700 240 700 c 256,25,26
 182 700 182 700 141 659 c 128,-1,27
 100 618 100 618 100 560 c 2,14,-1
EndSplineSet
EndChar

StartChar: one
Encoding: 49 49 11
Width: 326
VWidth: 1365
Flags: W
LayerCount: 2
Fore
SplineSet
207 800 m 1,0,-1
 207 0 l 1,1,-1
 107 0 l 1,2,-1
 107 605 l 1,3,4
 59 570 59 570 0 563 c 1,5,-1
 0 664 l 1,6,7
 38 673 38 673 72.5 707.5 c 128,-1,8
 107 742 107 742 107 800 c 1,9,-1
 207 800 l 1,0,-1
EndSplineSet
EndChar

StartChar: two
Encoding: 50 50 12
Width: 599
VWidth: 1365
Flags: W
LayerCount: 2
Fore
SplineSet
240 800 m 256,0,1
 339 800 339 800 409.5 729.5 c 128,-1,2
 480 659 480 659 480 560 c 256,3,4
 480 461 480 461 410 390 c 1,5,-1
 399 380 l 1,6,-1
 387 371 l 1,7,-1
 215 237 l 2,8,9
 200 226 200 226 188 212 c 0,10,11
 140 164 140 164 117 100 c 1,12,-1
 480 100 l 1,13,-1
 480 0 l 1,14,-1
 0 0 l 1,15,16
 0 166 0 166 117 283 c 0,17,18
 134 300 134 300 154 315 c 2,19,-1
 326 449 l 2,20,21
 333 454 333 454 339 461 c 0,22,23
 380 502 380 502 380 560 c 128,-1,24
 380 618 380 618 339 659 c 128,-1,25
 298 700 298 700 240 700 c 256,26,27
 182 700 182 700 141 659 c 128,-1,28
 100 618 100 618 100 556 c 1,29,-1
 0 556 l 1,30,31
 0 659 0 659 70.5 729.5 c 128,-1,32
 141 800 141 800 240 800 c 256,0,1
EndSplineSet
EndChar

StartChar: three
Encoding: 51 51 13
Width: 599
VWidth: 1365
Flags: W
LayerCount: 2
Fore
SplineSet
430 800 m 1,0,-1
 430 700 l 1,1,-1
 291 575 l 1,2,3
 360 560 360 560 420 499.5 c 128,-1,4
 480 439 480 439 480 340 c 2,5,-1
 480 240 l 2,6,7
 480 141 480 141 409.5 70.5 c 128,-1,8
 339 0 339 0 240 0 c 256,9,10
 141 0 141 0 70.5 70.5 c 128,-1,11
 0 141 0 141 0 240 c 1,12,-1
 100 240 l 1,13,14
 100 182 100 182 141 141 c 128,-1,15
 182 100 182 100 240 100 c 256,16,17
 298 100 298 100 339 141 c 128,-1,18
 380 182 380 182 380 240 c 2,19,-1
 380 340 l 2,20,21
 380 398 380 398 339 439 c 128,-1,22
 298 480 298 480 240 480 c 256,23,24
 182 480 182 480 141 439 c 2,25,-1
 138 436 l 1,26,-1
 90 527 l 1,27,-1
 281 700 l 1,28,-1
 0 700 l 1,29,-1
 52 800 l 1,30,-1
 430 800 l 1,0,-1
EndSplineSet
EndChar

StartChar: four
Encoding: 52 52 14
Width: 599
VWidth: 1365
Flags: W
LayerCount: 2
Fore
SplineSet
330 800 m 1,0,-1
 430 800 l 1,1,-1
 430 290 l 1,2,-1
 480 290 l 1,3,-1
 480 190 l 1,4,-1
 430 190 l 1,5,-1
 430 0 l 1,6,-1
 330 0 l 1,7,-1
 330 190 l 1,8,-1
 0 190 l 1,9,-1
 0 290 l 1,10,-1
 330 800 l 1,0,-1
119 290 m 1,11,-1
 330 290 l 1,12,-1
 330 616 l 1,13,-1
 119 290 l 1,11,-1
EndSplineSet
EndChar

StartChar: five
Encoding: 53 53 15
Width: 599
VWidth: 1365
Flags: W
LayerCount: 2
Fore
SplineSet
0 800 m 1,0,-1
 430 800 l 1,1,-1
 430 700 l 1,2,-1
 100 700 l 1,3,-1
 100 555 l 1,4,5
 163 600 163 600 240 600 c 0,6,7
 339 600 339 600 409.5 529.5 c 128,-1,8
 480 459 480 459 480 360 c 2,9,-1
 480 240 l 2,10,11
 480 141 480 141 409.5 70.5 c 128,-1,12
 339 0 339 0 240 0 c 256,13,14
 141 0 141 0 70.5 70.5 c 128,-1,15
 0 141 0 141 0 240 c 1,16,-1
 100 240 l 1,17,18
 100 182 100 182 141 141 c 128,-1,19
 182 100 182 100 240 100 c 256,20,21
 298 100 298 100 339 141 c 128,-1,22
 380 182 380 182 380 240 c 2,23,-1
 380 360 l 2,24,25
 380 418 380 418 339 459 c 128,-1,26
 298 500 298 500 240 500 c 0,27,28
 201 500 201 500 168 480 c 1,29,-1
 0 480 l 1,30,-1
 0 800 l 1,0,-1
EndSplineSet
EndChar

StartChar: six
Encoding: 54 54 16
Width: 599
VWidth: 1365
Flags: W
LayerCount: 2
Fore
SplineSet
240 800 m 256,0,1
 339 800 339 800 398 741 c 128,-1,2
 457 682 457 682 473 616 c 1,3,-1
 368 616 l 1,4,5
 358 640 358 640 328 670 c 128,-1,6
 298 700 298 700 240 700 c 256,7,8
 182 700 182 700 141 659 c 128,-1,9
 100 618 100 618 100 560 c 2,10,-1
 100 455 l 1,11,12
 163 500 163 500 240 500 c 0,13,14
 339 500 339 500 409.5 429.5 c 128,-1,15
 480 359 480 359 480 260 c 2,16,-1
 480 240 l 2,17,18
 480 141 480 141 409.5 70.5 c 128,-1,19
 339 0 339 0 240 0 c 256,20,21
 141 0 141 0 70.5 70.5 c 128,-1,22
 0 141 0 141 0 240 c 2,23,-1
 0 560 l 2,24,25
 0 659 0 659 70.5 729.5 c 128,-1,26
 141 800 141 800 240 800 c 256,0,1
100 260 m 2,27,-1
 100 240 l 2,28,29
 100 182 100 182 141 141 c 128,-1,30
 182 100 182 100 240 100 c 256,31,32
 298 100 298 100 339 141 c 128,-1,33
 380 182 380 182 380 240 c 2,34,-1
 380 260 l 2,35,36
 380 318 380 318 339 359 c 128,-1,37
 298 400 298 400 240 400 c 256,38,39
 182 400 182 400 141 359 c 128,-1,40
 100 318 100 318 100 260 c 2,27,-1
EndSplineSet
EndChar

StartChar: seven
Encoding: 55 55 17
Width: 599
VWidth: 1365
Flags: W
LayerCount: 2
Fore
SplineSet
0 800 m 1,0,-1
 480 800 l 1,1,-1
 480 647 l 1,2,3
 429 610 429 610 289.5 470.5 c 128,-1,4
 150 331 150 331 150 0 c 1,5,-1
 50 0 l 1,6,7
 50 373 50 373 198.5 521.5 c 128,-1,8
 347 670 347 670 384 700 c 1,9,-1
 0 700 l 1,10,-1
 0 800 l 1,0,-1
EndSplineSet
EndChar

StartChar: eight
Encoding: 56 56 18
Width: 599
VWidth: 1365
Flags: W
LayerCount: 2
Fore
SplineSet
480 560 m 0,1,2
 480 469 480 469 419 400 c 1,3,4
 480 332 480 332 480 240 c 0,5,6
 480 141 480 141 409.5 70.5 c 128,-1,7
 339 0 339 0 238 0 c 0,8,9
 141 0 141 0 70.5 70.5 c 128,-1,10
 0 141 0 141 0 240 c 0,11,12
 0 332 0 332 61 400 c 1,13,14
 0 469 0 469 0 560 c 0,15,16
 0 659 0 659 70.5 729.5 c 128,-1,17
 141 800 141 800 242 800 c 0,18,19
 339 800 339 800 409.5 729.5 c 128,-1,0
 480 659 480 659 480 560 c 0,1,2
141 141 m 128,-1,21
 182 100 182 100 240 100 c 128,-1,22
 298 100 298 100 339 141 c 128,-1,23
 380 182 380 182 380 240 c 128,-1,24
 380 298 380 298 339 339 c 128,-1,25
 298 380 298 380 240 380 c 128,-1,26
 182 380 182 380 141 339 c 128,-1,27
 100 298 100 298 100 240 c 128,-1,20
 100 182 100 182 141 141 c 128,-1,21
141 461 m 128,-1,29
 182 420 182 420 240 420 c 128,-1,30
 298 420 298 420 339 461 c 128,-1,31
 380 502 380 502 380 560 c 128,-1,32
 380 618 380 618 339 659 c 128,-1,33
 298 700 298 700 240 700 c 128,-1,34
 182 700 182 700 141 659 c 128,-1,35
 100 618 100 618 100 560 c 128,-1,28
 100 502 100 502 141 461 c 128,-1,29
EndSplineSet
EndChar

StartChar: nine
Encoding: 57 57 19
Width: 599
VWidth: 1365
Flags: W
LayerCount: 2
Fore
SplineSet
240 0 m 256,0,1
 141 0 141 0 82 59 c 128,-1,2
 23 118 23 118 7 184 c 1,3,-1
 112 184 l 1,4,5
 122 160 122 160 152 130 c 128,-1,6
 182 100 182 100 240 100 c 256,7,8
 298 100 298 100 339 141 c 128,-1,9
 380 182 380 182 380 240 c 2,10,-1
 380 345 l 1,11,12
 317 300 317 300 240 300 c 0,13,14
 141 300 141 300 70.5 370.5 c 128,-1,15
 0 441 0 441 0 540 c 2,16,-1
 0 560 l 2,17,18
 0 659 0 659 70.5 729.5 c 128,-1,19
 141 800 141 800 240 800 c 256,20,21
 339 800 339 800 409.5 729.5 c 128,-1,22
 480 659 480 659 480 560 c 2,23,-1
 480 240 l 2,24,25
 480 141 480 141 409.5 70.5 c 128,-1,26
 339 0 339 0 240 0 c 256,0,1
380 540 m 2,27,-1
 380 560 l 2,28,29
 380 618 380 618 339 659 c 128,-1,30
 298 700 298 700 240 700 c 256,31,32
 182 700 182 700 141 659 c 128,-1,33
 100 618 100 618 100 560 c 2,34,-1
 100 540 l 2,35,36
 100 482 100 482 141 441 c 128,-1,37
 182 400 182 400 240 400 c 256,38,39
 298 400 298 400 339 441 c 128,-1,40
 380 482 380 482 380 540 c 2,27,-1
EndSplineSet
EndChar

StartChar: colon
Encoding: 58 58 20
Width: 119
VWidth: 1365
Flags: W
LayerCount: 2
Fore
SplineSet
0 800 m 256,0,1
 13 800 13 800 25.5 793 c 128,-1,2
 38 786 38 786 45 773.5 c 128,-1,3
 52 761 52 761 52 748 c 256,4,5
 52 735 52 735 45 722.5 c 128,-1,6
 38 710 38 710 25.5 703 c 128,-1,7
 13 696 13 696 0 696 c 256,8,9
 -13 696 -13 696 -25.5 703 c 128,-1,10
 -38 710 -38 710 -45 722 c 128,-1,11
 -52 734 -52 734 -52 748 c 256,12,13
 -52 761 -52 761 -45 773.5 c 128,-1,14
 -38 786 -38 786 -25.5 793 c 128,-1,15
 -13 800 -13 800 0 800 c 256,0,1
0 104 m 256,16,17
 13 104 13 104 25.5 97.5 c 128,-1,18
 38 91 38 91 45 78 c 128,-1,19
 52 65 52 65 52 52 c 256,20,21
 52 39 52 39 45 26.5 c 128,-1,22
 38 14 38 14 25.5 7 c 128,-1,23
 13 0 13 0 0 0 c 256,24,25
 -13 0 -13 0 -25.5 7 c 128,-1,26
 -38 14 -38 14 -45 26.5 c 128,-1,27
 -52 39 -52 39 -52 52 c 256,28,29
 -52 65 -52 65 -45 78 c 128,-1,30
 -38 91 -38 91 -25.5 97.5 c 128,-1,31
 -13 104 -13 104 0 104 c 256,16,17
EndSplineSet
EndChar

StartChar: semicolon
Encoding: 59 59 21
AltUni2: 00037e.ffffffff.0
Width: 119
VWidth: 1365
Flags: W
LayerCount: 2
Fore
SplineSet
0 104 m 256,0,1
 21 104 21 104 36.5 88.5 c 128,-1,2
 52 73 52 73 52 52 c 0,3,4
 52 -13 52 -13 6.5 -58.5 c 128,-1,5
 -39 -104 -39 -104 -104 -104 c 1,6,7
 -61 -104 -61 -104 -30.5 -73.5 c 128,-1,8
 0 -43 0 -43 0 0 c 1,9,10
 -21 0 -21 0 -36.5 15.5 c 128,-1,11
 -52 31 -52 31 -52 52 c 128,-1,12
 -52 73 -52 73 -36.5 88.5 c 128,-1,13
 -21 104 -21 104 0 104 c 256,0,1
0 800 m 256,14,15
 13 800 13 800 25.5 793 c 128,-1,16
 38 786 38 786 45 773.5 c 128,-1,17
 52 761 52 761 52 748 c 256,18,19
 52 735 52 735 45 722.5 c 128,-1,20
 38 710 38 710 25.5 703 c 128,-1,21
 13 696 13 696 0 696 c 256,22,23
 -13 696 -13 696 -25.5 703 c 128,-1,24
 -38 710 -38 710 -45 722 c 128,-1,25
 -52 734 -52 734 -52 748 c 256,26,27
 -52 761 -52 761 -45 773.5 c 128,-1,28
 -38 786 -38 786 -25.5 793 c 128,-1,29
 -13 800 -13 800 0 800 c 256,14,15
EndSplineSet
EndChar

StartChar: less
Encoding: 60 60 22
Width: 599
VWidth: 1365
Flags: W
LayerCount: 2
Fore
SplineSet
0 400 m 1,0,-1
 480 640 l 1,1,-1
 480 582 l 1,2,-1
 116 400 l 1,3,-1
 480 218 l 1,4,-1
 480 160 l 1,5,-1
 0 400 l 1,0,-1
EndSplineSet
EndChar

StartChar: equal
Encoding: 61 61 23
Width: 599
VWidth: 1365
Flags: W
LayerCount: 2
Fore
SplineSet
0 348 m 1,0,-1
 480 348 l 1,1,-1
 480 296 l 1,2,-1
 0 296 l 1,3,-1
 0 348 l 1,0,-1
0 504 m 1,4,-1
 480 504 l 1,5,-1
 480 452 l 1,6,-1
 0 452 l 1,7,-1
 0 504 l 1,4,-1
EndSplineSet
EndChar

StartChar: greater
Encoding: 62 62 24
Width: 599
VWidth: 1365
Flags: W
LayerCount: 2
Fore
SplineSet
480 400 m 1,0,-1
 0 160 l 1,1,-1
 0 218 l 1,2,-1
 364 400 l 1,3,-1
 0 582 l 1,4,-1
 0 640 l 1,5,-1
 480 400 l 1,0,-1
EndSplineSet
EndChar

StartChar: A
Encoding: 65 65 25
Width: 599
VWidth: 1365
Flags: W
LayerCount: 2
Fore
SplineSet
190 800 m 1,0,-1
 290 800 l 1,1,-1
 480 0 l 1,2,-1
 377 0 l 1,3,-1
 337 167 l 1,4,-1
 143 167 l 1,5,-1
 103 0 l 1,6,-1
 0 0 l 1,7,-1
 190 800 l 1,0,-1
166 267 m 1,8,-1
 314 267 l 1,9,-1
 240 578 l 1,10,-1
 166 267 l 1,8,-1
EndSplineSet
EndChar

StartChar: B
Encoding: 66 66 26
Width: 599
VWidth: 1365
Flags: W
LayerCount: 2
Fore
SplineSet
0 800 m 1,0,-1
 280 800 l 2,1,2
 363 800 363 800 421.5 741 c 128,-1,3
 480 682 480 682 480 600 c 256,4,5
 480 517 480 517 401 438 c 1,6,7
 480 359 480 359 480 260 c 2,8,-1
 480 240 l 2,9,10
 480 141 480 141 409.5 70.5 c 128,-1,11
 339 0 339 0 240 0 c 2,12,-1
 0 0 l 1,13,-1
 0 800 l 1,0,-1
100 700 m 1,14,-1
 100 500 l 1,15,-1
 280 500 l 2,16,17
 321 500 321 500 350.5 529.5 c 128,-1,18
 380 559 380 559 380 600 c 128,-1,19
 380 641 380 641 350.5 670.5 c 128,-1,20
 321 700 321 700 280 700 c 2,21,-1
 100 700 l 1,14,-1
100 400 m 1,22,-1
 100 100 l 1,23,-1
 240 100 l 2,24,25
 298 100 298 100 339 141 c 128,-1,26
 380 182 380 182 380 240 c 2,27,-1
 380 260 l 2,28,29
 380 318 380 318 339 359 c 128,-1,30
 298 400 298 400 240 400 c 2,31,-1
 100 400 l 1,22,-1
EndSplineSet
EndChar

StartChar: C
Encoding: 67 67 27
Width: 599
VWidth: 1365
Flags: W
LayerCount: 2
Fore
SplineSet
480 240 m 1,0,1
 480 141 480 141 409.5 70.5 c 128,-1,2
 339 0 339 0 240 0 c 256,3,4
 141 0 141 0 70.5 70.5 c 128,-1,5
 0 141 0 141 0 240 c 2,6,-1
 0 560 l 2,7,8
 0 659 0 659 70.5 729.5 c 128,-1,9
 141 800 141 800 240 800 c 256,10,11
 339 800 339 800 409.5 729.5 c 128,-1,12
 480 659 480 659 480 560 c 1,13,-1
 380 560 l 1,14,15
 380 618 380 618 339 659 c 128,-1,16
 298 700 298 700 240 700 c 256,17,18
 182 700 182 700 141 659 c 128,-1,19
 100 618 100 618 100 560 c 2,20,-1
 100 240 l 2,21,22
 100 182 100 182 141 141 c 128,-1,23
 182 100 182 100 240 100 c 256,24,25
 298 100 298 100 339 141 c 128,-1,26
 380 182 380 182 380 240 c 1,27,-1
 480 240 l 1,0,1
EndSplineSet
EndChar

StartChar: D
Encoding: 68 68 28
Width: 599
VWidth: 1365
Flags: W
LayerCount: 2
Fore
SplineSet
240 0 m 2,0,-1
 0 0 l 1,1,-1
 0 800 l 1,2,-1
 240 800 l 2,3,4
 339 800 339 800 409.5 729.5 c 128,-1,5
 480 659 480 659 480 560 c 2,6,-1
 480 240 l 2,7,8
 480 141 480 141 409.5 70.5 c 128,-1,9
 339 0 339 0 240 0 c 2,0,-1
240 700 m 2,10,-1
 100 700 l 1,11,-1
 100 100 l 1,12,-1
 240 100 l 2,13,14
 298 100 298 100 339 141 c 128,-1,15
 380 182 380 182 380 240 c 2,16,-1
 380 560 l 2,17,18
 380 618 380 618 339 659 c 128,-1,19
 298 700 298 700 240 700 c 2,10,-1
EndSplineSet
EndChar

StartChar: E
Encoding: 69 69 29
Width: 599
VWidth: 1365
Flags: W
LayerCount: 2
Fore
SplineSet
430 800 m 1,0,-1
 430 700 l 1,1,-1
 100 700 l 1,2,-1
 100 500 l 1,3,-1
 380 500 l 1,4,-1
 380 400 l 1,5,-1
 100 400 l 1,6,-1
 100 100 l 1,7,-1
 480 100 l 1,8,-1
 480 0 l 1,9,-1
 0 0 l 1,10,-1
 0 800 l 1,11,-1
 430 800 l 1,0,-1
EndSplineSet
EndChar

StartChar: F
Encoding: 70 70 30
Width: 599
VWidth: 1365
Flags: W
LayerCount: 2
Fore
SplineSet
100 400 m 1,0,-1
 100 0 l 1,1,-1
 0 0 l 1,2,-1
 0 800 l 1,3,-1
 480 800 l 1,4,-1
 480 700 l 1,5,-1
 100 700 l 1,6,-1
 100 500 l 1,7,-1
 320 500 l 1,8,-1
 320 400 l 1,9,-1
 100 400 l 1,0,-1
EndSplineSet
EndChar

StartChar: G
Encoding: 71 71 31
Width: 599
VWidth: 1365
Flags: W
LayerCount: 2
Fore
SplineSet
480 240 m 2,0,1
 480 141 480 141 409.5 70.5 c 128,-1,2
 339 0 339 0 240 0 c 256,3,4
 141 0 141 0 70.5 70.5 c 128,-1,5
 0 141 0 141 0 240 c 2,6,-1
 0 560 l 2,7,8
 0 659 0 659 70.5 729.5 c 128,-1,9
 141 800 141 800 240 800 c 256,10,11
 339 800 339 800 409.5 729.5 c 128,-1,12
 480 659 480 659 480 560 c 1,13,-1
 380 560 l 1,14,15
 380 618 380 618 339 659 c 128,-1,16
 298 700 298 700 240 700 c 256,17,18
 182 700 182 700 141 659 c 128,-1,19
 100 618 100 618 100 560 c 2,20,-1
 100 240 l 2,21,22
 100 182 100 182 141 141 c 128,-1,23
 182 100 182 100 240 100 c 256,24,25
 298 100 298 100 339 141 c 128,-1,26
 380 182 380 182 380 240 c 2,27,-1
 380 300 l 1,28,-1
 296 300 l 1,29,-1
 296 400 l 1,30,-1
 480 400 l 1,31,-1
 480 240 l 2,0,1
EndSplineSet
EndChar

StartChar: H
Encoding: 72 72 32
Width: 599
VWidth: 1365
Flags: W
LayerCount: 2
Fore
SplineSet
100 800 m 1,0,-1
 100 500 l 1,1,-1
 380 500 l 1,2,-1
 380 800 l 1,3,-1
 480 800 l 1,4,-1
 480 0 l 1,5,-1
 380 0 l 1,6,-1
 380 400 l 1,7,-1
 100 400 l 1,8,-1
 100 0 l 1,9,-1
 0 0 l 1,10,-1
 0 800 l 1,11,-1
 100 800 l 1,0,-1
EndSplineSet
EndChar

StartChar: I
Encoding: 73 73 33
Width: 219
VWidth: 1365
Flags: W
LayerCount: 2
Fore
SplineSet
0 800 m 1,0,-1
 100 800 l 1,1,-1
 100 0 l 1,2,-1
 0 0 l 1,3,-1
 0 800 l 1,0,-1
EndSplineSet
EndChar

StartChar: J
Encoding: 74 74 34
Width: 359
VWidth: 1365
Flags: W
LayerCount: 2
Fore
SplineSet
240 800 m 1,0,-1
 240 144 l 2,1,2
 240 85 240 85 197.5 42.5 c 128,-1,3
 155 0 155 0 96 0 c 2,4,-1
 0 0 l 1,5,-1
 0 100 l 1,6,-1
 96 100 l 2,7,8
 114 100 114 100 127 112.5 c 128,-1,9
 140 125 140 125 140 144 c 2,10,-1
 140 700 l 1,11,-1
 0 700 l 1,12,-1
 0 800 l 1,13,-1
 240 800 l 1,0,-1
EndSplineSet
EndChar

StartChar: K
Encoding: 75 75 35
Width: 599
VWidth: 1365
Flags: W
LayerCount: 2
Fore
SplineSet
100 800 m 1,0,-1
 100 439 l 1,1,-1
 357 800 l 1,2,-1
 480 800 l 1,3,-1
 290 533 l 1,4,-1
 480 0 l 1,5,-1
 374 0 l 1,6,-1
 219 434 l 1,7,-1
 100 267 l 1,8,-1
 100 0 l 1,9,-1
 0 0 l 1,10,-1
 0 800 l 1,11,-1
 100 800 l 1,0,-1
EndSplineSet
EndChar

StartChar: L
Encoding: 76 76 36
Width: 599
VWidth: 1365
Flags: W
LayerCount: 2
Fore
SplineSet
0 0 m 1,0,-1
 0 800 l 1,1,-1
 100 800 l 1,2,-1
 100 100 l 1,3,-1
 480 100 l 1,4,-1
 480 0 l 1,5,-1
 0 0 l 1,0,-1
EndSplineSet
EndChar

StartChar: M
Encoding: 77 77 37
Width: 839
VWidth: 1365
Flags: W
LayerCount: 2
Fore
SplineSet
100 800 m 1,0,-1
 360 400 l 1,1,-1
 620 800 l 1,2,-1
 720 800 l 1,3,-1
 720 0 l 1,4,-1
 620 0 l 1,5,-1
 620 617 l 1,6,-1
 360 217 l 1,7,-1
 100 617 l 1,8,-1
 100 0 l 1,9,-1
 0 0 l 1,10,-1
 0 800 l 1,11,-1
 100 800 l 1,0,-1
EndSplineSet
EndChar

StartChar: N
Encoding: 78 78 38
Width: 599
VWidth: 1365
Flags: W
LayerCount: 2
Fore
SplineSet
480 800 m 1,0,-1
 480 1 l 1,1,-1
 370 0 l 1,2,-1
 100 584 l 1,3,-1
 100 0 l 1,4,-1
 0 0 l 1,5,-1
 0 800 l 1,6,-1
 103 800 l 1,7,-1
 380 216 l 1,8,-1
 380 800 l 1,9,-1
 480 800 l 1,0,-1
EndSplineSet
EndChar

StartChar: O
Encoding: 79 79 39
Width: 599
VWidth: 1365
Flags: W
LayerCount: 2
Fore
SplineSet
240 800 m 256,0,1
 339 800 339 800 409.5 729.5 c 128,-1,2
 480 659 480 659 480 560 c 2,3,-1
 480 240 l 2,4,5
 480 141 480 141 409.5 70.5 c 128,-1,6
 339 0 339 0 240 0 c 256,7,8
 141 0 141 0 70.5 70.5 c 128,-1,9
 0 141 0 141 0 240 c 2,10,-1
 0 560 l 2,11,12
 0 659 0 659 70.5 729.5 c 128,-1,13
 141 800 141 800 240 800 c 256,0,1
100 560 m 2,14,-1
 100 240 l 2,15,16
 100 182 100 182 141 141 c 128,-1,17
 182 100 182 100 240 100 c 256,18,19
 298 100 298 100 339 141 c 128,-1,20
 380 182 380 182 380 240 c 2,21,-1
 380 560 l 2,22,23
 380 618 380 618 339 659 c 128,-1,24
 298 700 298 700 240 700 c 256,25,26
 182 700 182 700 141 659 c 128,-1,27
 100 618 100 618 100 560 c 2,14,-1
EndSplineSet
EndChar

StartChar: P
Encoding: 80 80 40
Width: 599
VWidth: 1365
Flags: W
LayerCount: 2
Fore
SplineSet
240 800 m 2,0,1
 339 800 339 800 409.5 729.5 c 128,-1,2
 480 659 480 659 480 560 c 2,3,-1
 480 540 l 2,4,5
 480 441 480 441 409.5 370.5 c 128,-1,6
 339 300 339 300 240 300 c 2,7,-1
 100 300 l 1,8,-1
 100 0 l 1,9,-1
 0 0 l 1,10,-1
 0 800 l 1,11,-1
 240 800 l 2,0,1
100 700 m 1,12,-1
 100 400 l 1,13,-1
 240 400 l 2,14,15
 298 400 298 400 339 441 c 128,-1,16
 380 482 380 482 380 540 c 2,17,-1
 380 560 l 2,18,19
 380 618 380 618 339 659 c 128,-1,20
 298 700 298 700 240 700 c 2,21,-1
 100 700 l 1,12,-1
EndSplineSet
EndChar

StartChar: Q
Encoding: 81 81 41
Width: 669
VWidth: 1365
Flags: W
LayerCount: 2
Fore
SplineSet
380 327 m 1,0,-1
 380 560 l 2,1,2
 380 618 380 618 339 659 c 128,-1,3
 298 700 298 700 240 700 c 256,4,5
 182 700 182 700 141 659 c 128,-1,6
 100 618 100 618 100 560 c 2,7,-1
 100 240 l 2,8,9
 100 182 100 182 141 141 c 128,-1,10
 182 100 182 100 240 100 c 256,11,12
 298 100 298 100 339 141 c 0,13,14
 370 172 370 172 377 213 c 1,15,-1
 310 251 l 1,16,-1
 360 338 l 1,17,-1
 380 327 l 1,0,-1
467 161 m 1,18,19
 450 111 450 111 410 71 c 0,20,21
 339 0 339 0 240 0 c 256,22,23
 141 0 141 0 70.5 70.5 c 128,-1,24
 0 141 0 141 0 240 c 2,25,-1
 0 560 l 2,26,27
 0 659 0 659 70.5 729.5 c 128,-1,28
 141 800 141 800 240 800 c 256,29,30
 339 800 339 800 409.5 729.5 c 128,-1,31
 480 659 480 659 480 560 c 2,32,-1
 480 269 l 1,33,-1
 550 229 l 1,34,-1
 500 142 l 1,35,-1
 467 161 l 1,18,19
EndSplineSet
EndChar

StartChar: R
Encoding: 82 82 42
Width: 599
VWidth: 1365
Flags: W
LayerCount: 2
Fore
SplineSet
100 700 m 1,0,-1
 100 400 l 1,1,-1
 240 400 l 2,2,3
 298 400 298 400 339 441 c 128,-1,4
 380 482 380 482 380 540 c 2,5,-1
 380 560 l 2,6,7
 380 618 380 618 339 659 c 128,-1,8
 298 700 298 700 240 700 c 2,9,-1
 100 700 l 1,0,-1
480 0 m 1,10,-1
 371 0 l 1,11,-1
 237 300 l 1,12,-1
 100 300 l 1,13,-1
 100 0 l 1,14,-1
 0 0 l 1,15,-1
 0 800 l 1,16,-1
 240 800 l 2,17,18
 339 800 339 800 409.5 729.5 c 128,-1,19
 480 659 480 659 480 560 c 2,20,-1
 480 540 l 2,21,22
 480 441 480 441 410 371 c 0,23,24
 377 338 377 338 337 320 c 1,25,-1
 480 0 l 1,10,-1
EndSplineSet
EndChar

StartChar: S
Encoding: 83 83 43
Width: 599
VWidth: 1365
Flags: W
LayerCount: 2
Fore
SplineSet
240 800 m 256,0,1
 339 800 339 800 409.5 730 c 128,-1,2
 480 660 480 660 480 560 c 1,3,-1
 380 560 l 1,4,5
 380 618 380 618 339 659 c 128,-1,6
 298 700 298 700 240 700 c 256,7,8
 182 700 182 700 141 659 c 128,-1,9
 100 618 100 618 100 560 c 0,10,11
 100 519 100 519 125.5 493 c 128,-1,12
 151 467 151 467 182 462 c 2,13,-1
 317 437 l 2,14,15
 378 426 378 426 429 374.5 c 128,-1,16
 480 323 480 323 480 240 c 0,17,18
 480 141 480 141 409.5 70.5 c 128,-1,19
 339 0 339 0 240 0 c 256,20,21
 141 0 141 0 70.5 70.5 c 128,-1,22
 0 141 0 141 0 240 c 1,23,-1
 100 240 l 1,24,25
 100 182 100 182 141 141 c 128,-1,26
 182 100 182 100 241 104 c 1,27,28
 298 100 298 100 339 141 c 128,-1,29
 380 182 380 182 380 240 c 0,30,31
 380 281 380 281 354.5 307 c 128,-1,32
 329 333 329 333 298 338 c 2,33,-1
 163 363 l 2,34,35
 102 374 102 374 51 425.5 c 128,-1,36
 0 477 0 477 0 560 c 0,37,38
 0 659 0 659 70.5 729.5 c 128,-1,39
 141 800 141 800 240 800 c 256,0,1
EndSplineSet
EndChar

StartChar: T
Encoding: 84 84 44
Width: 599
VWidth: 1365
Flags: W
LayerCount: 2
Fore
SplineSet
480 800 m 1,0,-1
 480 700 l 1,1,-1
 290 700 l 1,2,-1
 290 0 l 1,3,-1
 190 0 l 1,4,-1
 190 700 l 1,5,-1
 0 700 l 1,6,-1
 0 800 l 1,7,-1
 480 800 l 1,0,-1
EndSplineSet
EndChar

StartChar: U
Encoding: 85 85 45
Width: 599
VWidth: 1365
Flags: W
LayerCount: 2
Fore
SplineSet
100 800 m 1,0,-1
 100 240 l 2,1,2
 100 182 100 182 141 141 c 128,-1,3
 182 100 182 100 240 100 c 256,4,5
 298 100 298 100 339 141 c 128,-1,6
 380 182 380 182 380 240 c 2,7,-1
 380 800 l 1,8,-1
 480 800 l 1,9,-1
 480 240 l 2,10,11
 480 141 480 141 409.5 70.5 c 128,-1,12
 339 0 339 0 240 0 c 256,13,14
 141 0 141 0 70.5 70.5 c 128,-1,15
 0 141 0 141 0 240 c 2,16,-1
 0 800 l 1,17,-1
 100 800 l 1,0,-1
EndSplineSet
EndChar

StartChar: V
Encoding: 86 86 46
Width: 599
VWidth: 1365
Flags: W
LayerCount: 2
Fore
SplineSet
103 800 m 1,0,-1
 240 222 l 1,1,-1
 377 800 l 1,2,-1
 480 800 l 1,3,-1
 290 0 l 1,4,-1
 190 0 l 1,5,-1
 0 800 l 1,6,-1
 103 800 l 1,0,-1
EndSplineSet
EndChar

StartChar: W
Encoding: 87 87 47
Width: 839
VWidth: 1365
Flags: W
LayerCount: 2
Fore
SplineSet
101 800 m 1,0,-1
 200 142 l 1,1,-1
 283 700 l 1,2,-1
 437 700 l 1,3,-1
 520 142 l 1,4,-1
 619 800 l 1,5,-1
 720 800 l 1,6,-1
 600 0 l 1,7,-1
 441 0 l 1,8,-1
 360 516 l 1,9,-1
 279 0 l 1,10,-1
 120 0 l 1,11,-1
 0 800 l 1,12,-1
 101 800 l 1,0,-1
EndSplineSet
EndChar

StartChar: X
Encoding: 88 88 48
Width: 599
VWidth: 1365
Flags: W
LayerCount: 2
Fore
SplineSet
103 800 m 1,0,-1
 240 519 l 1,1,-1
 370 800 l 1,2,-1
 480 800 l 1,3,-1
 295 400 l 1,4,-1
 480 0 l 1,5,-1
 370 0 l 1,6,-1
 240 281 l 1,7,-1
 103 0 l 1,8,-1
 0 0 l 1,9,-1
 185 400 l 1,10,-1
 2 800 l 1,11,-1
 103 800 l 1,0,-1
EndSplineSet
EndChar

StartChar: Y
Encoding: 89 89 49
Width: 599
VWidth: 1365
Flags: W
LayerCount: 2
Fore
SplineSet
106 800 m 1,0,-1
 240 423 l 1,1,-1
 374 800 l 1,2,-1
 480 800 l 1,3,-1
 290 267 l 1,4,-1
 290 0 l 1,5,-1
 190 0 l 1,6,-1
 190 267 l 1,7,-1
 0 800 l 1,8,-1
 106 800 l 1,0,-1
EndSplineSet
EndChar

StartChar: Z
Encoding: 90 90 50
Width: 599
VWidth: 1365
Flags: W
LayerCount: 2
Fore
SplineSet
480 800 m 1,0,-1
 480 661 l 1,1,-1
 100 100 l 1,2,-1
 480 100 l 1,3,-1
 480 0 l 1,4,-1
 0 0 l 1,5,-1
 0 139 l 1,6,-1
 385 700 l 1,7,-1
 0 700 l 1,8,-1
 0 800 l 1,9,-1
 480 800 l 1,0,-1
EndSplineSet
EndChar

StartChar: a
Encoding: 97 97 51
Width: 451
VWidth: 1365
Flags: W
LayerCount: 2
Fore
SplineSet
165 533 m 0,0,1
 233 533 233 533 281 485 c 128,-1,2
 329 437 329 437 329 369 c 2,3,-1
 329 135 l 2,4,5
 329 108 329 108 337.5 99 c 128,-1,6
 346 90 346 90 347 89 c 2,7,-1
 347 0 l 1,8,9
 313 10 313 10 298 25 c 128,-1,10
 283 40 283 40 279 46 c 1,11,12
 231 0 231 0 163 0 c 256,13,14
 96 0 96 0 48 48 c 128,-1,15
 0 96 0 96 0 165 c 0,16,17
 0 233 0 233 48 281 c 128,-1,18
 96 329 96 329 165 329 c 2,19,-1
 249 329 l 1,20,-1
 249 369 l 2,21,22
 249 404 249 404 224 428.5 c 128,-1,23
 199 453 199 453 164 453 c 128,-1,24
 129 453 129 453 104.5 428.5 c 128,-1,25
 80 404 80 404 80 369 c 1,26,-1
 0 369 l 1,27,28
 0 438 0 438 48 485.5 c 128,-1,29
 96 533 96 533 165 533 c 0,0,1
104.5 224 m 128,-1,31
 80 199 80 199 80 164 c 128,-1,32
 80 129 80 129 104.5 104.5 c 128,-1,33
 129 80 129 80 164 80 c 128,-1,34
 199 80 199 80 224 104.5 c 128,-1,35
 249 129 249 129 249 165 c 2,36,-1
 249 249 l 1,37,-1
 159 249 l 2,38,30
 129 249 129 249 104.5 224 c 128,-1,31
EndSplineSet
EndChar

StartChar: b
Encoding: 98 98 52
Width: 432
VWidth: 1365
Flags: W
LayerCount: 2
Fore
SplineSet
80 0 m 1,0,-1
 0 0 l 1,1,-1
 0 800 l 1,2,-1
 80 800 l 1,3,-1
 80 511 l 1,4,5
 117 534 117 534 164 533 c 0,6,7
 233 533 233 533 281 485 c 128,-1,8
 329 437 329 437 329 369 c 2,9,-1
 329 165 l 2,10,11
 329 96 329 96 281 48 c 128,-1,12
 233 0 233 0 164 0 c 0,13,14
 117 0 117 0 80 23 c 1,15,-1
 80 0 l 1,0,-1
105 105 m 256,17,18
 130 80 130 80 164.5 80 c 128,-1,19
 199 80 199 80 224 104.5 c 128,-1,20
 249 129 249 129 249 165 c 2,21,-1
 249 369 l 2,22,23
 249 404 249 404 224 428.5 c 128,-1,24
 199 453 199 453 164 453 c 128,-1,25
 129 453 129 453 105 429 c 256,26,27
 80 404 80 404 80 369 c 2,28,-1
 80 165 l 2,29,16
 80 130 80 130 105 105 c 256,17,18
EndSplineSet
EndChar

StartChar: c
Encoding: 99 99 53
Width: 432
VWidth: 1365
Flags: W
LayerCount: 2
Fore
SplineSet
80 165 m 2,0,1
 80 130 80 130 104.5 105 c 128,-1,2
 129 80 129 80 164 80 c 128,-1,3
 199 80 199 80 224 104.5 c 128,-1,4
 249 129 249 129 249 165 c 1,5,-1
 329 165 l 1,6,7
 329 96 329 96 281 48 c 128,-1,8
 233 0 233 0 164 0 c 0,9,10
 96 0 96 0 48 48 c 128,-1,11
 0 96 0 96 0 165 c 2,12,-1
 0 369 l 2,13,14
 0 438 0 438 48 485.5 c 128,-1,15
 96 533 96 533 164 533 c 0,16,17
 233 533 233 533 281 485 c 128,-1,18
 329 437 329 437 329 369 c 1,19,-1
 249 369 l 1,20,21
 249 404 249 404 224 428.5 c 128,-1,22
 199 453 199 453 164 453 c 128,-1,23
 129 453 129 453 104.5 428.5 c 128,-1,24
 80 404 80 404 80 369 c 2,25,-1
 80 165 l 2,0,1
EndSplineSet
EndChar

StartChar: d
Encoding: 100 100 54
Width: 432
VWidth: 1365
Flags: W
LayerCount: 2
Fore
SplineSet
249 23 m 1,0,1
 212 0 212 0 165 0 c 0,2,3
 96 0 96 0 48 48 c 128,-1,4
 0 96 0 96 0 165 c 2,5,-1
 0 369 l 2,6,7
 0 438 0 438 48 485.5 c 128,-1,8
 96 533 96 533 165 533 c 0,9,10
 212 533 212 533 249 511 c 1,11,-1
 249 800 l 1,12,-1
 329 800 l 1,13,-1
 329 0 l 1,14,-1
 249 0 l 1,15,-1
 249 23 l 1,0,1
249 165 m 2,16,-1
 249 369 l 2,17,18
 249 404 249 404 224 429 c 256,19,20
 199 454 199 454 164 453.5 c 128,-1,21
 129 453 129 453 104.5 428.5 c 128,-1,22
 80 404 80 404 80 369 c 2,23,-1
 80 165 l 2,24,25
 80 130 80 130 104.5 105 c 128,-1,26
 129 80 129 80 164 80 c 128,-1,27
 199 80 199 80 224 105 c 256,28,29
 249 130 249 130 249 165 c 2,16,-1
EndSplineSet
EndChar

StartChar: e
Encoding: 101 101 55
Width: 432
VWidth: 1365
Flags: W
LayerCount: 2
Fore
SplineSet
80 165 m 2,0,1
 80 130 80 130 104.5 105 c 128,-1,2
 129 80 129 80 164 80 c 128,-1,3
 199 80 199 80 224 104.5 c 128,-1,4
 249 129 249 129 249 165 c 1,5,-1
 329 165 l 1,6,7
 329 96 329 96 281 48 c 128,-1,8
 233 0 233 0 164 0 c 0,9,10
 96 0 96 0 48 48 c 128,-1,11
 0 96 0 96 0 165 c 2,12,-1
 0 369 l 2,13,14
 0 438 0 438 48 485.5 c 128,-1,15
 96 533 96 533 164 533 c 0,16,17
 233 533 233 533 281 485 c 128,-1,18
 329 437 329 437 329 369 c 2,19,-1
 329 227 l 1,20,-1
 80 227 l 1,21,-1
 80 165 l 2,0,1
249 369 m 2,22,23
 249 404 249 404 224 428.5 c 128,-1,24
 199 453 199 453 164 453 c 128,-1,25
 129 453 129 453 104.5 428.5 c 128,-1,26
 80 404 80 404 80 369 c 2,27,-1
 80 307 l 1,28,-1
 249 307 l 1,29,-1
 249 369 l 2,22,23
EndSplineSet
EndChar

StartChar: f
Encoding: 102 102 56
Width: 309
VWidth: 1365
Flags: W
LayerCount: 2
Fore
SplineSet
205 453 m 1,0,-1
 205 533 l 1,1,-1
 143 533 l 1,2,-1
 143 664 l 2,3,4
 143 687 143 687 159.5 703.5 c 128,-1,5
 176 720 176 720 199 720 c 2,6,-1
 205 720 l 1,7,-1
 205 800 l 1,8,-1
 199 800 l 2,9,10
 142 800 142 800 102.5 760 c 128,-1,11
 63 720 63 720 63 664 c 2,12,-1
 63 533 l 1,13,-1
 0 533 l 1,14,-1
 0 453 l 1,15,-1
 63 453 l 1,16,-1
 63 0 l 1,17,-1
 143 0 l 1,18,-1
 143 453 l 1,19,-1
 205 453 l 1,0,-1
EndSplineSet
EndChar

StartChar: g
Encoding: 103 103 57
Width: 432
VWidth: 1365
Flags: W
LayerCount: 2
Fore
SplineSet
224 429 m 256,0,1
 199 454 199 454 164 453.5 c 128,-1,2
 129 453 129 453 104.5 428.5 c 128,-1,3
 80 404 80 404 80 369 c 2,4,-1
 80 165 l 2,5,6
 80 130 80 130 104.5 105 c 128,-1,7
 129 80 129 80 164 80 c 128,-1,8
 199 80 199 80 224 105 c 256,9,10
 249 130 249 130 249 165 c 2,11,-1
 249 369 l 2,12,13
 249 404 249 404 224 429 c 256,0,1
249 -131 m 2,14,-1
 249 23 l 1,15,16
 212 0 212 0 165 0 c 0,17,18
 96 0 96 0 48 48 c 128,-1,19
 0 96 0 96 0 165 c 2,20,-1
 0 369 l 2,21,22
 0 438 0 438 48 485.5 c 128,-1,23
 96 533 96 533 165 533 c 0,24,25
 212 533 212 533 249 511 c 1,26,-1
 249 533 l 1,27,-1
 329 533 l 1,28,-1
 329 -131 l 2,29,30
 329 -187 329 -187 289 -227 c 128,-1,31
 249 -267 249 -267 193 -267 c 2,32,-1
 165 -267 l 1,33,-1
 165 -187 l 1,34,-1
 193 -187 l 2,35,36
 216 -187 216 -187 232.5 -170.5 c 128,-1,37
 249 -154 249 -154 249 -131 c 2,14,-1
EndSplineSet
EndChar

StartChar: h
Encoding: 104 104 58
Width: 432
VWidth: 1365
Flags: W
LayerCount: 2
Fore
SplineSet
329 369 m 2,0,-1
 329 0 l 1,1,-1
 249 0 l 1,2,-1
 249 369 l 2,3,4
 248 405 248 405 223.5 429 c 128,-1,5
 199 453 199 453 163 453 c 0,6,7
 128 453 128 453 104 429 c 0,8,9
 83 408 83 408 80 381 c 1,10,-1
 80 0 l 1,11,-1
 0 0 l 1,12,-1
 0 800 l 1,13,-1
 80 800 l 1,14,-1
 80 511 l 1,15,16
 117 534 117 534 163 533 c 0,17,18
 232 533 232 533 280.5 485.5 c 128,-1,19
 329 438 329 438 329 369 c 2,0,-1
EndSplineSet
EndChar

StartChar: i
Encoding: 105 105 59
Width: 183
VWidth: 1365
Flags: W
LayerCount: 2
Fore
SplineSet
80 369 m 1,0,-1
 80 0 l 1,1,-1
 0 0 l 1,2,-1
 0 369 l 1,3,-1
 80 369 l 1,0,-1
40 573 m 256,4,5
 50 573 50 573 59.5 568 c 128,-1,6
 69 563 69 563 74.5 553.5 c 128,-1,7
 80 544 80 544 80 533 c 256,8,9
 80 522 80 522 74.5 513 c 128,-1,10
 69 504 69 504 60 498.5 c 128,-1,11
 51 493 51 493 40 493 c 256,12,13
 29 493 29 493 20 498.5 c 128,-1,14
 11 504 11 504 5.5 513.5 c 128,-1,15
 0 523 0 523 0 533 c 256,16,17
 0 544 0 544 5.5 553.5 c 128,-1,18
 11 563 11 563 20.5 568 c 128,-1,19
 30 573 30 573 40 573 c 256,4,5
EndSplineSet
EndChar

StartChar: j
Encoding: 106 106 60
Width: 246
VWidth: 1365
Flags: W
LayerCount: 2
Fore
SplineSet
99 738 m 256,0,1
 109 738 109 738 119 733 c 128,-1,2
 129 728 129 728 134 718 c 128,-1,3
 139 708 139 708 139 698 c 256,4,5
 139 687 139 687 134 678 c 128,-1,6
 129 669 129 669 119.5 663.5 c 128,-1,7
 110 658 110 658 99 658 c 256,8,9
 88 658 88 658 79 663.5 c 128,-1,10
 70 669 70 669 64.5 678 c 128,-1,11
 59 687 59 687 59 698 c 256,12,13
 59 709 59 709 64.5 718.5 c 128,-1,14
 70 728 70 728 79.5 733 c 128,-1,15
 89 738 89 738 99 738 c 256,0,1
143 533 m 1,16,-1
 63 533 l 1,17,-1
 63 -131 l 2,18,19
 63 -154 63 -154 46 -170.5 c 128,-1,20
 29 -187 29 -187 7 -187 c 2,21,-1
 0 -187 l 1,22,-1
 0 -267 l 1,23,-1
 7 -267 l 2,24,25
 64 -267 64 -267 103.5 -227 c 128,-1,26
 143 -187 143 -187 143 -131 c 2,27,-1
 143 533 l 1,16,-1
EndSplineSet
EndChar

StartChar: k
Encoding: 107 107 61
Width: 432
VWidth: 1365
Flags: W
LayerCount: 2
Fore
SplineSet
80 800 m 1,0,-1
 80 304 l 1,1,-1
 233 533 l 1,2,-1
 329 533 l 1,3,-1
 222 373 l 1,4,-1
 329 0 l 1,5,-1
 245 0 l 1,6,-1
 164 286 l 1,7,-1
 80 160 l 1,8,-1
 80 0 l 1,9,-1
 0 0 l 1,10,-1
 0 800 l 1,11,-1
 80 800 l 1,0,-1
EndSplineSet
EndChar

StartChar: l
Encoding: 108 108 62
Width: 246
VWidth: 1365
Flags: W
LayerCount: 2
Fore
SplineSet
0 136 m 2,0,1
 0 79 0 79 39.5 39.5 c 128,-1,2
 79 0 79 0 136 0 c 2,3,-1
 143 0 l 1,4,-1
 143 80 l 1,5,-1
 136 80 l 2,6,7
 113 80 113 80 96.5 96.5 c 128,-1,8
 80 113 80 113 80 136 c 2,9,-1
 80 800 l 1,10,-1
 0 800 l 1,11,-1
 0 136 l 2,0,1
EndSplineSet
EndChar

StartChar: m
Encoding: 109 109 63
Width: 592
VWidth: 1365
Flags: W
LayerCount: 2
Fore
SplineSet
489 397 m 2,0,-1
 489 0 l 1,1,-1
 409 0 l 1,2,-1
 409 397 l 2,3,4
 409 420 409 420 392.5 436.5 c 128,-1,5
 376 453 376 453 353 453 c 0,6,7
 330 453 330 453 313.5 437 c 128,-1,8
 297 421 297 421 297 397 c 2,9,-1
 297 0 l 1,10,-1
 217 0 l 1,11,-1
 217 397 l 2,12,13
 217 420 217 420 200.5 436.5 c 128,-1,14
 184 453 184 453 161 453 c 0,15,16
 138 453 138 453 121.5 437 c 128,-1,17
 105 421 105 421 105 397 c 2,18,-1
 105 0 l 1,19,-1
 25 0 l 1,20,-1
 25 401 l 2,21,22
 25 424 25 424 8 440 c 0,23,24
 5 444 5 444 0 447 c 1,25,-1
 0 533 l 1,26,27
 37 525 37 525 65 497 c 0,28,29
 66 496 66 496 66 495 c 0,30,31
 105 533 105 533 161 533 c 0,32,33
 218 533 218 533 257 494 c 1,34,35
 296 533 296 533 353 533 c 256,36,37
 410 533 410 533 449.5 493.5 c 128,-1,38
 489 454 489 454 489 397 c 2,0,-1
EndSplineSet
EndChar

StartChar: n
Encoding: 110 110 64
Width: 451
VWidth: 1365
Flags: W
LayerCount: 2
Fore
SplineSet
51 499 m 0,1,2
 59 491 59 491 65 483 c 1,3,4
 66 484 66 484 67 485 c 0,5,6
 115 533 115 533 183 533 c 0,7,8
 251 533 251 533 299 485 c 128,-1,9
 347 437 347 437 347 369 c 2,10,-1
 347 0 l 1,11,-1
 267 0 l 1,12,-1
 267 369 l 2,13,14
 267 404 267 404 242.5 428.5 c 128,-1,15
 218 453 218 453 183 453 c 128,-1,16
 148 453 148 453 123.5 428.5 c 128,-1,17
 99 404 99 404 99 369 c 2,18,-1
 99 0 l 1,19,-1
 19 0 l 1,20,-1
 19 383 l 2,21,22
 19 414 19 414 0 436 c 1,23,-1
 0 533 l 1,24,0
 28 522 28 522 51 499 c 0,1,2
EndSplineSet
EndChar

StartChar: o
Encoding: 111 111 65
Width: 432
VWidth: 1365
Flags: W
LayerCount: 2
Fore
SplineSet
80 165 m 2,0,1
 80 130 80 130 104.5 105 c 128,-1,2
 129 80 129 80 164 80 c 128,-1,3
 199 80 199 80 224 104.5 c 128,-1,4
 249 129 249 129 249 165 c 2,5,-1
 249 369 l 2,6,7
 249 404 249 404 224 428.5 c 128,-1,8
 199 453 199 453 164 453 c 128,-1,9
 129 453 129 453 104.5 428.5 c 128,-1,10
 80 404 80 404 80 369 c 2,11,-1
 80 165 l 2,0,1
329 165 m 2,12,13
 329 96 329 96 281 48 c 128,-1,14
 233 0 233 0 164 0 c 0,15,16
 96 0 96 0 48 48 c 128,-1,17
 0 96 0 96 0 165 c 2,18,-1
 0 369 l 2,19,20
 0 438 0 438 48 485.5 c 128,-1,21
 96 533 96 533 164 533 c 0,22,23
 233 533 233 533 281 485 c 128,-1,24
 329 437 329 437 329 369 c 2,25,-1
 329 165 l 2,12,13
EndSplineSet
EndChar

StartChar: p
Encoding: 112 112 66
Width: 432
VWidth: 1365
Flags: W
LayerCount: 2
Fore
SplineSet
80 511 m 1,0,1
 117 534 117 534 164 533 c 0,2,3
 233 533 233 533 281 485 c 128,-1,4
 329 437 329 437 329 369 c 2,5,-1
 329 165 l 2,6,7
 329 96 329 96 281 48 c 128,-1,8
 233 0 233 0 164 0 c 0,9,10
 117 0 117 0 80 23 c 1,11,-1
 80 -267 l 1,12,-1
 0 -267 l 1,13,-1
 0 533 l 1,14,-1
 80 533 l 1,15,-1
 80 511 l 1,0,1
80 369 m 2,16,-1
 80 165 l 2,17,18
 80 130 80 130 105 105 c 256,19,20
 130 80 130 80 164.5 80 c 128,-1,21
 199 80 199 80 224 104.5 c 128,-1,22
 249 129 249 129 249 165 c 2,23,-1
 249 369 l 2,24,25
 249 404 249 404 224 428.5 c 128,-1,26
 199 453 199 453 164 453 c 128,-1,27
 129 453 129 453 105 429 c 256,28,29
 80 404 80 404 80 369 c 2,16,-1
EndSplineSet
EndChar

StartChar: q
Encoding: 113 113 67
Width: 432
VWidth: 1365
Flags: W
LayerCount: 2
Fore
SplineSet
224 429 m 256,0,1
 199 454 199 454 164 453.5 c 128,-1,2
 129 453 129 453 104.5 428.5 c 128,-1,3
 80 404 80 404 80 369 c 2,4,-1
 80 165 l 2,5,6
 80 130 80 130 104.5 105 c 128,-1,7
 129 80 129 80 164 80 c 128,-1,8
 199 80 199 80 224 105 c 256,9,10
 249 130 249 130 249 165 c 2,11,-1
 249 369 l 2,12,13
 249 404 249 404 224 429 c 256,0,1
249 -131 m 2,14,-1
 249 23 l 1,15,16
 212 0 212 0 165 0 c 0,17,18
 96 0 96 0 48 48 c 128,-1,19
 0 96 0 96 0 165 c 2,20,-1
 0 369 l 2,21,22
 0 438 0 438 48 485.5 c 128,-1,23
 96 533 96 533 165 533 c 0,24,25
 212 533 212 533 249 511 c 1,26,-1
 249 533 l 1,27,-1
 329 533 l 1,28,-1
 329 -131 l 2,29,30
 329 -187 329 -187 289 -227 c 128,-1,31
 249 -267 249 -267 193 -267 c 2,32,-1
 165 -267 l 1,33,-1
 165 -187 l 1,34,-1
 193 -187 l 2,35,36
 216 -187 216 -187 232.5 -170.5 c 128,-1,37
 249 -154 249 -154 249 -131 c 2,14,-1
EndSplineSet
EndChar

StartChar: r
Encoding: 114 114 68
Width: 432
VWidth: 1365
Flags: W
LayerCount: 2
Fore
SplineSet
80 207 m 2,0,-1
 80 0 l 1,1,-1
 0 0 l 1,2,-1
 0 533 l 1,3,-1
 80 533 l 1,4,-1
 80 420 l 1,5,6
 87 429 87 429 96 437 c 0,7,8
 191 533 191 533 329 533 c 1,9,-1
 329 453 l 1,10,11
 225 453 225 453 153 381 c 0,12,13
 80 310 80 310 80 207 c 2,0,-1
EndSplineSet
EndChar

StartChar: s
Encoding: 115 115 69
Width: 432
VWidth: 1365
Flags: W
LayerCount: 2
Fore
SplineSet
256.5 495 m 128,-1,1
 295 457 295 457 295 403 c 1,2,-1
 215 403 l 1,3,4
 215 424 215 424 200 438.5 c 128,-1,5
 185 453 185 453 164 453 c 128,-1,6
 143 453 143 453 128.5 438.5 c 128,-1,7
 114 424 114 424 114 403.5 c 128,-1,8
 114 383 114 383 124.5 372.5 c 128,-1,9
 135 362 135 362 142 358 c 2,10,-1
 237 312 l 2,11,12
 262 300 262 300 295.5 266.5 c 128,-1,13
 329 233 329 233 329 165 c 0,14,15
 329 96 329 96 281 48 c 128,-1,16
 233 0 233 0 164 0 c 0,17,18
 96 0 96 0 48 48 c 128,-1,19
 0 96 0 96 0 165 c 1,20,-1
 80 165 l 1,21,22
 80 130 80 130 92.5 105 c 128,-1,23
 105 80 105 80 152 80 c 128,-1,24
 199 80 199 80 224 104.5 c 128,-1,25
 249 129 249 129 249 164 c 128,-1,26
 249 199 249 199 231.5 216.5 c 128,-1,27
 214 234 214 234 201 240 c 2,28,-1
 107 286 l 2,29,30
 87 296 87 296 60.5 322.5 c 128,-1,31
 34 349 34 349 34 403 c 128,-1,32
 34 457 34 457 72.5 495 c 128,-1,33
 111 533 111 533 164 533 c 0,34,0
 218 533 218 533 256.5 495 c 128,-1,1
EndSplineSet
EndChar

StartChar: t
Encoding: 116 116 70
Width: 309
VWidth: 1365
Flags: W
LayerCount: 2
Fore
SplineSet
205 453 m 1,0,-1
 205 533 l 1,1,-1
 143 533 l 1,2,-1
 143 800 l 1,3,-1
 63 800 l 1,4,-1
 63 533 l 1,5,-1
 0 533 l 1,6,-1
 0 453 l 1,7,-1
 63 453 l 1,8,-1
 63 136 l 2,9,10
 63 79 63 79 102.5 39.5 c 128,-1,11
 142 0 142 0 199 0 c 2,12,-1
 205 0 l 1,13,-1
 205 80 l 1,14,-1
 199 80 l 2,15,16
 176 80 176 80 159.5 96.5 c 128,-1,17
 143 113 143 113 143 136 c 2,18,-1
 143 453 l 1,19,-1
 205 453 l 1,0,-1
EndSplineSet
EndChar

StartChar: u
Encoding: 117 117 71
Width: 451
VWidth: 1365
Flags: W
LayerCount: 2
Fore
SplineSet
297 34 m 0,1,2
 289 42 289 42 283 50 c 1,3,4
 282 49 282 49 281 48 c 0,5,6
 233 0 233 0 164 0 c 0,7,8
 96 0 96 0 48 48 c 128,-1,9
 0 96 0 96 0 165 c 2,10,-1
 0 533 l 1,11,-1
 80 533 l 1,12,-1
 80 165 l 2,13,14
 80 130 80 130 104.5 105 c 128,-1,15
 129 80 129 80 164 80 c 128,-1,16
 199 80 199 80 224 104.5 c 128,-1,17
 249 129 249 129 249 165 c 2,18,-1
 249 533 l 1,19,-1
 329 533 l 1,20,-1
 329 151 l 2,21,22
 329 120 329 120 347 97 c 1,23,-1
 347 0 l 1,24,0
 320 11 320 11 297 34 c 0,1,2
EndSplineSet
EndChar

StartChar: v
Encoding: 118 118 72
Width: 432
VWidth: 1365
Flags: W
LayerCount: 2
Fore
SplineSet
0 533 m 1,0,-1
 81 533 l 1,1,-1
 165 113 l 1,2,-1
 247 533 l 1,3,-1
 329 533 l 1,4,-1
 224 0 l 1,5,-1
 105 0 l 1,6,-1
 0 533 l 1,0,-1
EndSplineSet
EndChar

StartChar: w
Encoding: 119 119 73
Width: 592
VWidth: 1365
Flags: W
LayerCount: 2
Fore
SplineSet
0 533 m 1,0,-1
 69 0 l 1,1,-1
 124 0 l 1,2,-1
 245 305 l 1,3,-1
 365 0 l 1,4,-1
 419 0 l 1,5,-1
 489 533 l 1,6,-1
 426 533 l 1,7,-1
 367 213 l 1,8,-1
 272 453 l 1,9,-1
 217 453 l 1,10,-1
 122 213 l 1,11,-1
 72 533 l 1,12,-1
 0 533 l 1,0,-1
EndSplineSet
EndChar

StartChar: x
Encoding: 120 120 74
Width: 432
VWidth: 1365
Flags: W
LayerCount: 2
Fore
SplineSet
88 533 m 1,0,-1
 165 364 l 1,1,-1
 241 533 l 1,2,-1
 329 533 l 1,3,-1
 208 267 l 1,4,-1
 329 0 l 1,5,-1
 241 0 l 1,6,-1
 165 169 l 1,7,-1
 88 0 l 1,8,-1
 0 0 l 1,9,-1
 116 267 l 1,10,-1
 0 533 l 1,11,-1
 88 533 l 1,0,-1
EndSplineSet
EndChar

StartChar: y
Encoding: 121 121 75
Width: 432
VWidth: 1365
Flags: W
LayerCount: 2
Fore
SplineSet
123 -1 m 1,0,-1
 0 533 l 1,1,-1
 82 533 l 1,2,-1
 165 167 l 1,3,-1
 247 533 l 1,4,-1
 329 533 l 1,5,-1
 175 -152 l 1,6,7
 168 -195 168 -195 137 -227 c 0,8,9
 97 -267 97 -267 40 -267 c 1,10,-1
 40 -187 l 1,11,12
 63 -187 63 -187 79 -170 c 0,13,14
 91 -158 91 -158 95 -143 c 2,15,-1
 123 -1 l 1,0,-1
EndSplineSet
EndChar

StartChar: z
Encoding: 122 122 76
Width: 432
VWidth: 1365
Flags: W
LayerCount: 2
Fore
SplineSet
0 532 m 1,0,-1
 329 532 l 1,1,-1
 329 428 l 1,2,-1
 80 80 l 1,3,-1
 329 80 l 1,4,-1
 329 -1 l 1,5,-1
 0 -1 l 1,6,-1
 0 105 l 1,7,-1
 238 453 l 1,8,-1
 0 453 l 1,9,-1
 0 532 l 1,0,-1
EndSplineSet
EndChar

StartChar: asciitilde
Encoding: 126 126 77
Width: 599
VWidth: 1365
Flags: W
LayerCount: 2
Fore
SplineSet
143 536 m 256,0,1
 204 536 204 536 254 485 c 1,2,-1
 324 405 l 2,3,4
 357 372 357 372 396.5 372 c 128,-1,5
 436 372 436 372 456 392 c 128,-1,6
 476 412 476 412 483 428 c 1,7,-1
 539 428 l 1,8,9
 528 391 528 391 492.5 355.5 c 128,-1,10
 457 320 457 320 396 320 c 256,11,12
 335 320 335 320 285 371 c 1,13,-1
 215 451 l 2,14,15
 182 484 182 484 142.5 484 c 128,-1,16
 103 484 103 484 83 464 c 128,-1,17
 63 444 63 444 55 428 c 1,18,-1
 0 428 l 1,19,20
 11 465 11 465 46.5 500.5 c 128,-1,21
 82 536 82 536 143 536 c 256,0,1
EndSplineSet
EndChar

StartChar: degree
Encoding: 176 176 78
Width: 119
VWidth: 1365
Flags: W
LayerCount: 2
Fore
SplineSet
0 880 m 256,0,1
 33 880 33 880 56.5 856.5 c 128,-1,2
 80 833 80 833 80 800 c 256,3,4
 80 767 80 767 56.5 743.5 c 128,-1,5
 33 720 33 720 0 720 c 0,6,7
 -33 720 -33 720 -56.5 743 c 128,-1,8
 -80 766 -80 766 -80 800 c 256,9,10
 -80 833 -80 833 -56.5 856.5 c 128,-1,11
 -33 880 -33 880 0 880 c 256,0,1
0 828 m 0,12,13
 -11 828 -11 828 -19.5 820 c 128,-1,14
 -28 812 -28 812 -28 800 c 0,15,16
 -28 789 -28 789 -19.5 780.5 c 128,-1,17
 -11 772 -11 772 0 772 c 256,18,19
 11 772 11 772 19.5 780 c 128,-1,20
 28 788 28 788 28 800 c 0,21,22
 28 812 28 812 20 820 c 128,-1,23
 12 828 12 828 0 828 c 0,12,13
EndSplineSet
EndChar

StartChar: bullet
Encoding: 8226 8226 79
Width: 359
VWidth: 1365
Flags: W
LayerCount: 2
Fore
SplineSet
120 520 m 256,0,1
 170 520 170 520 205 485 c 128,-1,2
 240 450 240 450 240 400 c 256,3,4
 240 350 240 350 205 315 c 128,-1,5
 170 280 170 280 120 280 c 256,6,7
 70 280 70 280 35 315 c 128,-1,8
 0 350 0 350 0 400 c 256,9,10
 0 450 0 450 35 485 c 128,-1,11
 70 520 70 520 120 520 c 256,0,1
120 469 m 0,12,13
 92 469 92 469 72 449 c 128,-1,14
 52 429 52 429 52 401 c 0,15,16
 52 372 52 372 72 352 c 128,-1,17
 92 332 92 332 120 332 c 256,18,19
 148 332 148 332 168 352 c 128,-1,20
 188 372 188 372 188 401 c 0,21,22
 188 429 188 429 168.5 449 c 128,-1,23
 149 469 149 469 120 469 c 0,12,13
EndSplineSet
EndChar

StartChar: plusminus
Encoding: 177 177 80
Width: 599
VWidth: 1365
Flags: W
LayerCount: 2
Fore
SplineSet
0 147 m 1,0,-1
 480 147 l 1,1,-1
 480 95 l 1,2,-1
 0 95 l 1,3,-1
 0 147 l 1,0,-1
266 705 m 1,4,-1
 266 491 l 1,5,-1
 480 491 l 1,6,-1
 480 439 l 1,7,-1
 266 439 l 1,8,-1
 266 225 l 1,9,-1
 214 225 l 1,10,-1
 214 439 l 1,11,-1
 0 439 l 1,12,-1
 0 491 l 1,13,-1
 214 491 l 1,14,-1
 214 705 l 1,15,-1
 266 705 l 1,4,-1
EndSplineSet
EndChar

StartChar: lessequal
Encoding: 8804 8804 81
Width: 599
VWidth: 1365
Flags: W
LayerCount: 2
Fore
SplineSet
480 79 m 1,0,-1
 0 319 l 1,1,-1
 0 377 l 1,2,-1
 480 137 l 1,3,-1
 480 79 l 1,0,-1
0 481 m 1,4,-1
 480 721 l 1,5,-1
 480 663 l 1,6,-1
 116 481 l 1,7,-1
 480 299 l 1,8,-1
 480 241 l 1,9,-1
 0 481 l 1,4,-1
EndSplineSet
EndChar

StartChar: greaterequal
Encoding: 8805 8805 82
Width: 599
VWidth: 1365
Flags: W
LayerCount: 2
Fore
SplineSet
0 137 m 1,0,-1
 480 377 l 1,1,-1
 480 319 l 1,2,-1
 0 79 l 1,3,-1
 0 137 l 1,0,-1
0 241 m 1,4,-1
 0 299 l 1,5,-1
 364 481 l 1,6,-1
 0 663 l 1,7,-1
 0 721 l 1,8,-1
 480 481 l 1,9,-1
 0 241 l 1,4,-1
EndSplineSet
EndChar

StartChar: yen
Encoding: 165 165 83
Width: 1079
VWidth: 1365
Flags: W
LayerCount: 2
Fore
SplineSet
661 90 m 2,0,1
 672 79 672 79 686 72 c 0,2,3
 721 52 721 52 760 52 c 256,4,5
 799 52 799 52 833.5 71.5 c 128,-1,6
 868 91 868 91 888 126 c 128,-1,7
 908 161 908 161 908 200 c 256,8,9
 908 239 908 239 888 274.5 c 128,-1,10
 868 310 868 310 832.5 329 c 128,-1,11
 797 348 797 348 760 348 c 256,12,13
 723 348 723 348 687 329 c 0,14,15
 670 319 670 319 656 306 c 2,16,-1
 522 201 l 1,17,-1
 661 90 l 2,0,1
480 168 m 1,18,-1
 341 57 l 2,19,20
 322 39 322 39 300 27 c 0,21,22
 252 0 252 0 200 0 c 256,23,24
 148 0 148 0 100.5 26.5 c 128,-1,25
 53 53 53 53 26.5 100.5 c 128,-1,26
 0 148 0 148 0 200 c 256,27,28
 0 252 0 252 27 300.5 c 128,-1,29
 54 349 54 349 101.5 374.5 c 128,-1,30
 149 400 149 400 200 400 c 0,31,32
 250 400 250 400 298 375 c 0,33,34
 317 364 317 364 333 351 c 2,35,-1
 480 235 l 1,36,-1
 627 351 l 2,37,38
 643 364 643 364 662 375 c 0,39,40
 710 400 710 400 760 400 c 0,41,42
 811 400 811 400 858.5 374.5 c 128,-1,43
 906 349 906 349 933 300.5 c 128,-1,44
 960 252 960 252 960 200 c 256,45,46
 960 148 960 148 933.5 100.5 c 128,-1,47
 907 53 907 53 859.5 26.5 c 128,-1,48
 812 0 812 0 760 0 c 256,49,50
 708 0 708 0 661 27 c 0,51,52
 638 40 638 40 619 57 c 2,53,-1
 480 168 l 1,18,-1
438 201 m 1,54,-1
 304 306 l 2,55,56
 290 319 290 319 273 329 c 0,57,58
 238 348 238 348 200 348 c 256,59,60
 163 348 163 348 127.5 329 c 128,-1,61
 92 310 92 310 72 274.5 c 128,-1,62
 52 239 52 239 52 200 c 256,63,64
 52 161 52 161 71.5 126 c 128,-1,65
 91 91 91 91 126 71.5 c 128,-1,66
 161 52 161 52 200 52 c 256,67,68
 239 52 239 52 274 72 c 0,69,70
 288 79 288 79 299 90 c 2,71,-1
 438 201 l 1,54,-1
EndSplineSet
EndChar

StartChar: summation
Encoding: 8721 8721 84
Width: 599
VWidth: 1365
Flags: W
LayerCount: 2
Fore
SplineSet
480 800 m 1,0,-1
 480 700 l 1,1,-1
 117 700 l 1,2,-1
 296 400 l 1,3,-1
 117 100 l 1,4,-1
 480 100 l 1,5,-1
 480 0 l 1,6,-1
 0 0 l 1,7,-1
 0 100 l 1,8,-1
 179 400 l 1,9,-1
 0 700 l 1,10,-1
 0 800 l 1,11,-1
 480 800 l 1,0,-1
EndSplineSet
EndChar

StartChar: Omega
Encoding: 8486 8486 85
Width: 939
VWidth: 1365
Flags: W
LayerCount: 2
Fore
SplineSet
410 800 m 256,0,1
 530 800 530 800 615 715 c 128,-1,2
 700 630 700 630 700 510 c 128,-1,3
 700 390 700 390 652.5 342.5 c 128,-1,4
 605 295 605 295 594 286 c 1,5,-1
 594 100 l 1,6,-1
 820 100 l 1,7,-1
 820 0 l 1,8,-1
 494 0 l 1,9,-1
 494 339 l 1,10,-1
 522 353 l 1,11,12
 600 431 600 431 600 510 c 128,-1,13
 600 589 600 589 544.5 644.5 c 128,-1,14
 489 700 489 700 410 700 c 0,15,16
 333 700 333 700 276.5 644.5 c 128,-1,17
 220 589 220 589 220 510 c 128,-1,18
 220 431 220 431 298 353 c 1,19,-1
 326 339 l 1,20,-1
 326 0 l 1,21,-1
 0 0 l 1,22,-1
 0 100 l 1,23,-1
 226 100 l 1,24,-1
 226 286 l 1,25,-1
 215 295 l 1,26,27
 118 391 118 391 119 510.5 c 128,-1,28
 120 630 120 630 205 715 c 128,-1,29
 290 800 290 800 410 800 c 256,0,1
EndSplineSet
EndChar

StartChar: radical
Encoding: 8730 8730 86
Width: 999
VWidth: 1365
Flags: W
LayerCount: 2
Fore
SplineSet
544 960 m 1,0,-1
 880 960 l 1,1,-1
 880 899 l 1,2,-1
 585 899 l 1,3,-1
 215 0 l 1,4,-1
 104 0 l 1,5,-1
 104 638 l 1,6,-1
 0 638 l 1,7,-1
 0 802 l 1,8,-1
 215 802 l 1,9,-1
 215 168 l 1,10,-1
 218 168 l 1,11,-1
 544 960 l 1,0,-1
EndSplineSet
EndChar

StartChar: approxequal
Encoding: 8776 8776 87
Width: 599
VWidth: 1365
Flags: W
LayerCount: 2
Fore
SplineSet
185 576 m 2,1,-1
 309 483 l 2,2,3
 334 464 334 464 370.5 464 c 128,-1,4
 407 464 407 464 427 484 c 128,-1,5
 447 504 447 504 454 520 c 1,6,-1
 480 520 l 1,7,8
 471 495 471 495 444 467.5 c 128,-1,9
 417 440 417 440 372 440 c 128,-1,10
 327 440 327 440 295 464 c 2,11,-1
 171 557 l 2,12,13
 146 576 146 576 109.5 576 c 128,-1,14
 73 576 73 576 53 556 c 128,-1,15
 33 536 33 536 26 520 c 1,16,-1
 0 520 l 1,17,18
 9 545 9 545 36 572.5 c 128,-1,19
 63 600 63 600 108.5 600 c 128,-1,0
 154 600 154 600 185 576 c 2,1,-1
185 456 m 2,21,-1
 309 363 l 2,22,23
 334 344 334 344 370.5 344 c 128,-1,24
 407 344 407 344 427 364 c 128,-1,25
 447 384 447 384 454 400 c 1,26,-1
 480 400 l 1,27,28
 471 375 471 375 444 347.5 c 128,-1,29
 417 320 417 320 372 320 c 128,-1,30
 327 320 327 320 295 344 c 2,31,-1
 171 437 l 2,32,33
 146 456 146 456 109.5 456 c 128,-1,34
 73 456 73 456 53 436 c 128,-1,35
 33 416 33 416 26 400 c 1,36,-1
 0 400 l 1,37,38
 9 425 9 425 36 452.5 c 128,-1,39
 63 480 63 480 108.5 480 c 128,-1,20
 154 480 154 480 185 456 c 2,21,-1
EndSplineSet
EndChar

StartChar: Delta
Encoding: 8710 8710 88
Width: 939
VWidth: 1365
Flags: W
LayerCount: 2
Fore
SplineSet
820 0 m 1,0,-1
 0 0 l 1,1,-1
 410 800 l 1,2,-1
 820 0 l 1,0,-1
163 100 m 1,3,-1
 657 100 l 1,4,-1
 410 581 l 1,5,-1
 163 100 l 1,3,-1
EndSplineSet
EndChar

StartChar: Alpha
Encoding: 913 913 89
Width: 599
VWidth: 1365
Flags: W
LayerCount: 2
Fore
SplineSet
190 800 m 1,0,-1
 290 800 l 1,1,-1
 480 0 l 1,2,-1
 377 0 l 1,3,-1
 337 167 l 1,4,-1
 143 167 l 1,5,-1
 103 0 l 1,6,-1
 0 0 l 1,7,-1
 190 800 l 1,0,-1
166 267 m 1,8,-1
 314 267 l 1,9,-1
 240 578 l 1,10,-1
 166 267 l 1,8,-1
EndSplineSet
EndChar

StartChar: Beta
Encoding: 914 914 90
Width: 599
VWidth: 1365
Flags: W
LayerCount: 2
Fore
SplineSet
0 800 m 1,0,-1
 280 800 l 2,1,2
 363 800 363 800 421.5 741 c 128,-1,3
 480 682 480 682 480 600 c 256,4,5
 480 517 480 517 401 438 c 1,6,7
 480 359 480 359 480 260 c 2,8,-1
 480 240 l 2,9,10
 480 141 480 141 409.5 70.5 c 128,-1,11
 339 0 339 0 240 0 c 2,12,-1
 0 0 l 1,13,-1
 0 800 l 1,0,-1
100 700 m 1,14,-1
 100 500 l 1,15,-1
 280 500 l 2,16,17
 321 500 321 500 350.5 529.5 c 128,-1,18
 380 559 380 559 380 600 c 128,-1,19
 380 641 380 641 350.5 670.5 c 128,-1,20
 321 700 321 700 280 700 c 2,21,-1
 100 700 l 1,14,-1
100 400 m 1,22,-1
 100 100 l 1,23,-1
 240 100 l 2,24,25
 298 100 298 100 339 141 c 128,-1,26
 380 182 380 182 380 240 c 2,27,-1
 380 260 l 2,28,29
 380 318 380 318 339 359 c 128,-1,30
 298 400 298 400 240 400 c 2,31,-1
 100 400 l 1,22,-1
EndSplineSet
EndChar

StartChar: Gamma
Encoding: 915 915 91
Width: 599
VWidth: 1365
Flags: W
LayerCount: 2
Fore
SplineSet
480 800 m 1,0,-1
 480 700 l 1,1,-1
 100 700 l 1,2,-1
 100 0 l 1,3,-1
 0 0 l 1,4,-1
 0 800 l 1,5,-1
 480 800 l 1,0,-1
EndSplineSet
EndChar

StartChar: uni0394
Encoding: 916 916 92
Width: 939
VWidth: 1365
Flags: W
LayerCount: 2
Fore
SplineSet
820 0 m 1,0,-1
 0 0 l 1,1,-1
 410 800 l 1,2,-1
 820 0 l 1,0,-1
163 100 m 1,3,-1
 657 100 l 1,4,-1
 410 581 l 1,5,-1
 163 100 l 1,3,-1
EndSplineSet
EndChar

StartChar: Epsilon
Encoding: 917 917 93
Width: 599
VWidth: 1365
Flags: W
LayerCount: 2
Fore
SplineSet
430 800 m 1,0,-1
 430 700 l 1,1,-1
 100 700 l 1,2,-1
 100 500 l 1,3,-1
 380 500 l 1,4,-1
 380 400 l 1,5,-1
 100 400 l 1,6,-1
 100 100 l 1,7,-1
 480 100 l 1,8,-1
 480 0 l 1,9,-1
 0 0 l 1,10,-1
 0 800 l 1,11,-1
 430 800 l 1,0,-1
EndSplineSet
EndChar

StartChar: Zeta
Encoding: 918 918 94
Width: 599
VWidth: 1365
Flags: W
LayerCount: 2
Fore
SplineSet
480 800 m 1,0,-1
 480 661 l 1,1,-1
 100 100 l 1,2,-1
 480 100 l 1,3,-1
 480 0 l 1,4,-1
 0 0 l 1,5,-1
 0 139 l 1,6,-1
 385 700 l 1,7,-1
 0 700 l 1,8,-1
 0 800 l 1,9,-1
 480 800 l 1,0,-1
EndSplineSet
EndChar

StartChar: Eta
Encoding: 919 919 95
Width: 599
VWidth: 1365
Flags: W
LayerCount: 2
Fore
SplineSet
100 800 m 1,0,-1
 100 500 l 1,1,-1
 380 500 l 1,2,-1
 380 800 l 1,3,-1
 480 800 l 1,4,-1
 480 0 l 1,5,-1
 380 0 l 1,6,-1
 380 400 l 1,7,-1
 100 400 l 1,8,-1
 100 0 l 1,9,-1
 0 0 l 1,10,-1
 0 800 l 1,11,-1
 100 800 l 1,0,-1
EndSplineSet
EndChar

StartChar: Theta
Encoding: 920 920 96
Width: 599
VWidth: 1365
Flags: W
LayerCount: 2
Fore
SplineSet
100 350 m 1,0,-1
 100 240 l 2,1,2
 100 182 100 182 141 141 c 128,-1,3
 182 100 182 100 240 100 c 256,4,5
 298 100 298 100 339 141 c 128,-1,6
 380 182 380 182 380 240 c 2,7,-1
 380 350 l 1,8,-1
 100 350 l 1,0,-1
380 450 m 1,9,-1
 380 560 l 2,10,11
 380 618 380 618 339 659 c 128,-1,12
 298 700 298 700 240 700 c 256,13,14
 182 700 182 700 141 659 c 128,-1,15
 100 618 100 618 100 560 c 2,16,-1
 100 450 l 1,17,-1
 380 450 l 1,9,-1
0 560 m 2,18,19
 0 659 0 659 70.5 729.5 c 128,-1,20
 141 800 141 800 240 800 c 256,21,22
 339 800 339 800 409.5 729.5 c 128,-1,23
 480 659 480 659 480 560 c 2,24,-1
 480 240 l 2,25,26
 480 141 480 141 409.5 70.5 c 128,-1,27
 339 0 339 0 240 0 c 256,28,29
 141 0 141 0 70.5 70.5 c 128,-1,30
 0 141 0 141 0 240 c 2,31,-1
 0 560 l 2,18,19
EndSplineSet
EndChar

StartChar: Iota
Encoding: 921 921 97
Width: 219
VWidth: 1365
Flags: W
LayerCount: 2
Fore
SplineSet
0 800 m 1,0,-1
 100 800 l 1,1,-1
 100 0 l 1,2,-1
 0 0 l 1,3,-1
 0 800 l 1,0,-1
EndSplineSet
EndChar

StartChar: Kappa
Encoding: 922 922 98
Width: 599
VWidth: 1365
Flags: W
LayerCount: 2
Fore
SplineSet
100 800 m 1,0,-1
 100 439 l 1,1,-1
 357 800 l 1,2,-1
 480 800 l 1,3,-1
 290 533 l 1,4,-1
 480 0 l 1,5,-1
 374 0 l 1,6,-1
 219 434 l 1,7,-1
 100 267 l 1,8,-1
 100 0 l 1,9,-1
 0 0 l 1,10,-1
 0 800 l 1,11,-1
 100 800 l 1,0,-1
EndSplineSet
EndChar

StartChar: Lambda
Encoding: 923 923 99
Width: 939
VWidth: 1365
Flags: W
LayerCount: 2
Fore
SplineSet
820 0 m 1,0,-1
 707 0 l 1,1,-1
 410 581 l 1,2,-1
 111 0 l 1,3,-1
 0 0 l 1,4,-1
 410 800 l 1,5,-1
 820 0 l 1,0,-1
EndSplineSet
EndChar

StartChar: Mu
Encoding: 924 924 100
Width: 839
VWidth: 1365
Flags: W
LayerCount: 2
Fore
SplineSet
100 800 m 1,0,-1
 360 400 l 1,1,-1
 620 800 l 1,2,-1
 720 800 l 1,3,-1
 720 0 l 1,4,-1
 620 0 l 1,5,-1
 620 617 l 1,6,-1
 360 217 l 1,7,-1
 100 617 l 1,8,-1
 100 0 l 1,9,-1
 0 0 l 1,10,-1
 0 800 l 1,11,-1
 100 800 l 1,0,-1
EndSplineSet
EndChar

StartChar: Nu
Encoding: 925 925 101
Width: 599
VWidth: 1365
Flags: W
LayerCount: 2
Fore
SplineSet
480 800 m 1,0,-1
 480 1 l 1,1,-1
 370 0 l 1,2,-1
 100 584 l 1,3,-1
 100 0 l 1,4,-1
 0 0 l 1,5,-1
 0 800 l 1,6,-1
 103 800 l 1,7,-1
 380 216 l 1,8,-1
 380 800 l 1,9,-1
 480 800 l 1,0,-1
EndSplineSet
EndChar

StartChar: Xi
Encoding: 926 926 102
Width: 599
VWidth: 1365
Flags: W
LayerCount: 2
Fore
SplineSet
0 800 m 1,0,-1
 480 800 l 1,1,-1
 480 650 l 1,2,-1
 380 650 l 1,3,-1
 380 700 l 1,4,-1
 100 700 l 1,5,-1
 100 650 l 1,6,-1
 0 650 l 1,7,-1
 0 800 l 1,0,-1
380 450 m 1,8,-1
 380 350 l 1,9,-1
 100 350 l 1,10,-1
 100 450 l 1,11,-1
 380 450 l 1,8,-1
100 150 m 1,12,-1
 100 100 l 1,13,-1
 380 100 l 1,14,-1
 380 150 l 1,15,-1
 480 150 l 1,16,-1
 480 0 l 1,17,-1
 0 0 l 1,18,-1
 0 150 l 1,19,-1
 100 150 l 1,12,-1
EndSplineSet
EndChar

StartChar: Omicron
Encoding: 927 927 103
Width: 599
VWidth: 1365
Flags: W
LayerCount: 2
Fore
SplineSet
240 800 m 256,0,1
 339 800 339 800 409.5 729.5 c 128,-1,2
 480 659 480 659 480 560 c 2,3,-1
 480 240 l 2,4,5
 480 141 480 141 409.5 70.5 c 128,-1,6
 339 0 339 0 240 0 c 256,7,8
 141 0 141 0 70.5 70.5 c 128,-1,9
 0 141 0 141 0 240 c 2,10,-1
 0 560 l 2,11,12
 0 659 0 659 70.5 729.5 c 128,-1,13
 141 800 141 800 240 800 c 256,0,1
100 560 m 2,14,-1
 100 240 l 2,15,16
 100 182 100 182 141 141 c 128,-1,17
 182 100 182 100 240 100 c 256,18,19
 298 100 298 100 339 141 c 128,-1,20
 380 182 380 182 380 240 c 2,21,-1
 380 560 l 2,22,23
 380 618 380 618 339 659 c 128,-1,24
 298 700 298 700 240 700 c 256,25,26
 182 700 182 700 141 659 c 128,-1,27
 100 618 100 618 100 560 c 2,14,-1
EndSplineSet
EndChar

StartChar: Pi
Encoding: 928 928 104
Width: 599
VWidth: 1365
Flags: W
LayerCount: 2
Fore
SplineSet
480 800 m 1,0,-1
 480 0 l 1,1,-1
 380 0 l 1,2,-1
 380 700 l 1,3,-1
 100 700 l 1,4,-1
 100 0 l 1,5,-1
 0 0 l 1,6,-1
 0 800 l 1,7,-1
 480 800 l 1,0,-1
EndSplineSet
EndChar

StartChar: Rho
Encoding: 929 929 105
Width: 599
VWidth: 1365
Flags: W
LayerCount: 2
Fore
SplineSet
240 800 m 2,0,1
 339 800 339 800 409.5 729.5 c 128,-1,2
 480 659 480 659 480 560 c 2,3,-1
 480 540 l 2,4,5
 480 441 480 441 409.5 370.5 c 128,-1,6
 339 300 339 300 240 300 c 2,7,-1
 100 300 l 1,8,-1
 100 0 l 1,9,-1
 0 0 l 1,10,-1
 0 800 l 1,11,-1
 240 800 l 2,0,1
100 700 m 1,12,-1
 100 400 l 1,13,-1
 240 400 l 2,14,15
 298 400 298 400 339 441 c 128,-1,16
 380 482 380 482 380 540 c 2,17,-1
 380 560 l 2,18,19
 380 618 380 618 339 659 c 128,-1,20
 298 700 298 700 240 700 c 2,21,-1
 100 700 l 1,12,-1
EndSplineSet
EndChar

StartChar: Sigma
Encoding: 931 931 106
Width: 599
VWidth: 1365
Flags: W
LayerCount: 2
Fore
SplineSet
480 800 m 1,0,-1
 480 700 l 1,1,-1
 117 700 l 1,2,-1
 296 400 l 1,3,-1
 117 100 l 1,4,-1
 480 100 l 1,5,-1
 480 0 l 1,6,-1
 0 0 l 1,7,-1
 0 100 l 1,8,-1
 179 400 l 1,9,-1
 0 700 l 1,10,-1
 0 800 l 1,11,-1
 480 800 l 1,0,-1
EndSplineSet
EndChar

StartChar: Tau
Encoding: 932 932 107
Width: 599
VWidth: 1365
Flags: W
LayerCount: 2
Fore
SplineSet
480 800 m 1,0,-1
 480 700 l 1,1,-1
 290 700 l 1,2,-1
 290 0 l 1,3,-1
 190 0 l 1,4,-1
 190 700 l 1,5,-1
 0 700 l 1,6,-1
 0 800 l 1,7,-1
 480 800 l 1,0,-1
EndSplineSet
EndChar

StartChar: Upsilon
Encoding: 933 933 108
Width: 599
VWidth: 1365
Flags: W
LayerCount: 2
Fore
SplineSet
106 800 m 1,0,-1
 240 423 l 1,1,-1
 374 800 l 1,2,-1
 480 800 l 1,3,-1
 290 267 l 1,4,-1
 290 0 l 1,5,-1
 190 0 l 1,6,-1
 190 267 l 1,7,-1
 0 800 l 1,8,-1
 106 800 l 1,0,-1
EndSplineSet
EndChar

StartChar: Phi
Encoding: 934 934 109
Width: 839
VWidth: 1365
Flags: W
LayerCount: 2
Fore
SplineSet
310 800 m 1,0,-1
 410 800 l 1,1,-1
 410 700 l 1,2,-1
 480 700 l 2,3,4
 579 700 579 700 649.5 629.5 c 128,-1,5
 720 559 720 559 720 460 c 2,6,-1
 720 440 l 2,7,8
 720 341 720 341 649.5 270.5 c 128,-1,9
 579 200 579 200 480 200 c 2,10,-1
 410 200 l 1,11,-1
 410 0 l 1,12,-1
 310 0 l 1,13,-1
 310 200 l 1,14,-1
 240 200 l 2,15,16
 141 200 141 200 70.5 270.5 c 128,-1,17
 0 341 0 341 0 440 c 2,18,-1
 0 460 l 2,19,20
 0 559 0 559 70.5 629.5 c 128,-1,21
 141 700 141 700 240 700 c 2,22,-1
 310 700 l 1,23,-1
 310 800 l 1,0,-1
100 460 m 2,24,-1
 100 440 l 2,25,26
 100 382 100 382 141 341 c 128,-1,27
 182 300 182 300 240 300 c 2,28,-1
 310 300 l 1,29,-1
 310 600 l 1,30,-1
 240 600 l 2,31,32
 182 600 182 600 141 559 c 128,-1,33
 100 518 100 518 100 460 c 2,24,-1
579 559 m 128,-1,35
 538 600 538 600 480 600 c 2,36,-1
 410 600 l 1,37,-1
 410 300 l 1,38,-1
 480 300 l 2,39,40
 538 300 538 300 579 341 c 128,-1,41
 620 382 620 382 620 440 c 2,42,-1
 620 460 l 2,43,34
 620 518 620 518 579 559 c 128,-1,35
EndSplineSet
EndChar

StartChar: Chi
Encoding: 935 935 110
Width: 599
VWidth: 1365
Flags: W
LayerCount: 2
Fore
SplineSet
103 800 m 1,0,-1
 240 519 l 1,1,-1
 370 800 l 1,2,-1
 480 800 l 1,3,-1
 295 400 l 1,4,-1
 480 0 l 1,5,-1
 370 0 l 1,6,-1
 240 281 l 1,7,-1
 103 0 l 1,8,-1
 0 0 l 1,9,-1
 185 400 l 1,10,-1
 2 800 l 1,11,-1
 103 800 l 1,0,-1
EndSplineSet
EndChar

StartChar: Psi
Encoding: 936 936 111
Width: 939
VWidth: 1365
Flags: W
LayerCount: 2
Fore
SplineSet
130 746 m 128,-1,1
 184 692 184 692 184 616 c 2,2,-1
 184 540 l 2,3,4
 184 482 184 482 225 441 c 128,-1,5
 266 400 266 400 324 400 c 2,6,-1
 360 400 l 1,7,-1
 360 800 l 1,8,-1
 460 800 l 1,9,-1
 460 400 l 1,10,-1
 496 400 l 2,11,12
 554 400 554 400 595 441 c 128,-1,13
 636 482 636 482 636 540 c 2,14,-1
 636 616 l 2,15,16
 636 692 636 692 690 746 c 128,-1,17
 744 800 744 800 820 800 c 1,18,-1
 820 700 l 1,19,20
 785 700 785 700 760.5 675.5 c 128,-1,21
 736 651 736 651 736 616 c 2,22,-1
 736 540 l 2,23,24
 736 441 736 441 655 370.5 c 128,-1,25
 574 300 574 300 496 300 c 2,26,-1
 460 300 l 1,27,-1
 460 0 l 1,28,-1
 360 0 l 1,29,-1
 360 300 l 1,30,-1
 324 300 l 2,31,32
 225 300 225 300 154.5 370.5 c 128,-1,33
 84 441 84 441 84 540 c 2,34,-1
 84 616 l 2,35,36
 84 651 84 651 59.5 675.5 c 128,-1,37
 35 700 35 700 0 700 c 1,38,-1
 0 800 l 1,39,0
 76 800 76 800 130 746 c 128,-1,1
EndSplineSet
EndChar

StartChar: uni03A9
Encoding: 937 937 112
Width: 939
VWidth: 1365
Flags: W
LayerCount: 2
Fore
SplineSet
410 800 m 256,0,1
 530 800 530 800 615 715 c 128,-1,2
 700 630 700 630 700 510 c 128,-1,3
 700 390 700 390 652.5 342.5 c 128,-1,4
 605 295 605 295 594 286 c 1,5,-1
 594 100 l 1,6,-1
 820 100 l 1,7,-1
 820 0 l 1,8,-1
 494 0 l 1,9,-1
 494 339 l 1,10,-1
 522 353 l 1,11,12
 600 431 600 431 600 510 c 128,-1,13
 600 589 600 589 544.5 644.5 c 128,-1,14
 489 700 489 700 410 700 c 0,15,16
 333 700 333 700 276.5 644.5 c 128,-1,17
 220 589 220 589 220 510 c 128,-1,18
 220 431 220 431 298 353 c 1,19,-1
 326 339 l 1,20,-1
 326 0 l 1,21,-1
 0 0 l 1,22,-1
 0 100 l 1,23,-1
 226 100 l 1,24,-1
 226 286 l 1,25,-1
 215 295 l 1,26,27
 118 391 118 391 119 510.5 c 128,-1,28
 120 630 120 630 205 715 c 128,-1,29
 290 800 290 800 410 800 c 256,0,1
EndSplineSet
EndChar

StartChar: "+AMAA"
Encoding: 1040 1040 113
Width: 599
VWidth: 1365
Flags: W
LayerCount: 2
Fore
SplineSet
190 800 m 1,0,-1
 290 800 l 1,1,-1
 480 0 l 1,2,-1
 377 0 l 1,3,-1
 337 167 l 1,4,-1
 143 167 l 1,5,-1
 103 0 l 1,6,-1
 0 0 l 1,7,-1
 190 800 l 1,0,-1
166 267 m 1,8,-1
 314 267 l 1,9,-1
 240 578 l 1,10,-1
 166 267 l 1,8,-1
EndSplineSet
EndChar

StartChar: "+AMEA"
Encoding: 1041 1041 114
Width: 599
VWidth: 1365
Flags: W
LayerCount: 2
Fore
SplineSet
430 800 m 1,0,-1
 430 700 l 1,1,-1
 100 700 l 1,2,-1
 100 500 l 1,3,-1
 240 500 l 2,4,5
 339 500 339 500 409.5 429.5 c 128,-1,6
 480 359 480 359 480 260 c 2,7,-1
 480 240 l 2,8,9
 480 141 480 141 409.5 70.5 c 128,-1,10
 339 0 339 0 240 0 c 2,11,-1
 0 0 l 1,12,-1
 0 800 l 1,13,-1
 430 800 l 1,0,-1
100 400 m 1,14,-1
 100 100 l 1,15,-1
 240 100 l 2,16,17
 298 100 298 100 339 141 c 128,-1,18
 380 182 380 182 380 240 c 2,19,-1
 380 260 l 2,20,21
 380 318 380 318 339 359 c 128,-1,22
 298 400 298 400 240 400 c 2,23,-1
 100 400 l 1,14,-1
EndSplineSet
EndChar

StartChar: "+AMIA"
Encoding: 1042 1042 115
Width: 599
VWidth: 1365
Flags: W
LayerCount: 2
Fore
SplineSet
0 800 m 1,0,-1
 280 800 l 2,1,2
 363 800 363 800 421.5 741 c 128,-1,3
 480 682 480 682 480 600 c 256,4,5
 480 517 480 517 401 438 c 1,6,7
 480 359 480 359 480 260 c 2,8,-1
 480 240 l 2,9,10
 480 141 480 141 409.5 70.5 c 128,-1,11
 339 0 339 0 240 0 c 2,12,-1
 0 0 l 1,13,-1
 0 800 l 1,0,-1
100 700 m 1,14,-1
 100 500 l 1,15,-1
 280 500 l 2,16,17
 321 500 321 500 350.5 529.5 c 128,-1,18
 380 559 380 559 380 600 c 128,-1,19
 380 641 380 641 350.5 670.5 c 128,-1,20
 321 700 321 700 280 700 c 2,21,-1
 100 700 l 1,14,-1
100 400 m 1,22,-1
 100 100 l 1,23,-1
 240 100 l 2,24,25
 298 100 298 100 339 141 c 128,-1,26
 380 182 380 182 380 240 c 2,27,-1
 380 260 l 2,28,29
 380 318 380 318 339 359 c 128,-1,30
 298 400 298 400 240 400 c 2,31,-1
 100 400 l 1,22,-1
EndSplineSet
EndChar

StartChar: "+AMMA"
Encoding: 1043 1043 116
Width: 599
VWidth: 1365
Flags: W
LayerCount: 2
Fore
SplineSet
480 800 m 1,0,-1
 480 700 l 1,1,-1
 100 700 l 1,2,-1
 100 0 l 1,3,-1
 0 0 l 1,4,-1
 0 800 l 1,5,-1
 480 800 l 1,0,-1
EndSplineSet
EndChar

StartChar: "+AMQA"
Encoding: 1044 1044 117
Width: 839
VWidth: 1365
Flags: W
LayerCount: 2
Fore
SplineSet
380 800 m 2,0,-1
 620 800 l 1,1,-1
 620 100 l 1,2,-1
 720 100 l 1,3,-1
 720 -100 l 1,4,-1
 620 -100 l 1,5,-1
 620 0 l 1,6,-1
 100 0 l 1,7,-1
 98 -100 l 1,8,-1
 0 -100 l 1,9,-1
 0 100 l 1,10,-1
 100 100 l 1,11,-1
 240 689 l 2,12,13
 266 800 266 800 380 800 c 2,0,-1
203 100 m 1,14,-1
 520 100 l 1,15,-1
 520 700 l 1,16,-1
 380 700 l 2,17,18
 345 700 345 700 337 666 c 2,19,-1
 203 100 l 1,14,-1
EndSplineSet
EndChar

StartChar: "+AMUA"
Encoding: 1045 1045 118
Width: 599
VWidth: 1365
Flags: W
LayerCount: 2
Fore
SplineSet
430 800 m 1,0,-1
 430 700 l 1,1,-1
 100 700 l 1,2,-1
 100 500 l 1,3,-1
 380 500 l 1,4,-1
 380 400 l 1,5,-1
 100 400 l 1,6,-1
 100 100 l 1,7,-1
 480 100 l 1,8,-1
 480 0 l 1,9,-1
 0 0 l 1,10,-1
 0 800 l 1,11,-1
 430 800 l 1,0,-1
EndSplineSet
EndChar

StartChar: "+AMYA"
Encoding: 1046 1046 119
Width: 839
VWidth: 1365
Flags: W
LayerCount: 2
Fore
SplineSet
112 800 m 1,0,-1
 263 500 l 1,1,-1
 310 500 l 1,2,-1
 310 800 l 1,3,-1
 409 800 l 1,4,-1
 409 500 l 1,5,-1
 457 500 l 1,6,-1
 608 800 l 1,7,-1
 720 800 l 1,8,-1
 544 450 l 1,9,-1
 720 0 l 1,10,-1
 613 0 l 1,11,-1
 456 400 l 1,12,-1
 409 400 l 1,13,-1
 409 0 l 1,14,-1
 310 0 l 1,15,-1
 310 400 l 1,16,-1
 264 400 l 1,17,-1
 107 0 l 1,18,-1
 0 0 l 1,19,-1
 176 450 l 1,20,-1
 0 800 l 1,21,-1
 112 800 l 1,0,-1
EndSplineSet
EndChar

StartChar: "+AMcA"
Encoding: 1047 1047 120
Width: 599
VWidth: 1365
Flags: W
LayerCount: 2
Fore
SplineSet
409.5 729.5 m 128,-1,1
 480 659 480 659 480 560 c 0,2,3
 480 473 480 473 406 400 c 1,4,5
 480 327 480 327 480 240 c 0,6,7
 480 141 480 141 409.5 70.5 c 128,-1,8
 339 0 339 0 240 0 c 256,9,10
 141 0 141 0 70.5 70.5 c 128,-1,11
 0 141 0 141 0 240 c 1,12,-1
 100 240 l 1,13,14
 100 182 100 182 141 141 c 128,-1,15
 182 100 182 100 240 100 c 128,-1,16
 298 100 298 100 339 141 c 128,-1,17
 380 182 380 182 380 240 c 0,18,19
 380 285 380 285 347.5 317.5 c 128,-1,20
 315 350 315 350 270 350 c 2,21,-1
 190 350 l 1,22,-1
 190 450 l 1,23,-1
 270 450 l 2,24,25
 315 450 315 450 347.5 482.5 c 128,-1,26
 380 515 380 515 380 567 c 0,27,28
 380 618 380 618 339 659 c 128,-1,29
 298 700 298 700 240 700 c 128,-1,30
 182 700 182 700 141 659 c 128,-1,31
 100 618 100 618 100 560 c 1,32,-1
 0 560 l 1,33,34
 0 659 0 659 70.5 729.5 c 128,-1,35
 141 800 141 800 240 800 c 256,36,0
 339 800 339 800 409.5 729.5 c 128,-1,1
EndSplineSet
EndChar

StartChar: "+AMgA"
Encoding: 1048 1048 121
Width: 599
VWidth: 1365
Flags: W
LayerCount: 2
Fore
SplineSet
100 800 m 1,0,-1
 100 216 l 1,1,-1
 377 800 l 1,2,-1
 480 800 l 1,3,-1
 480 0 l 1,4,-1
 380 0 l 1,5,-1
 380 584 l 1,6,-1
 110 0 l 1,7,-1
 0 1 l 1,8,-1
 0 800 l 1,9,-1
 100 800 l 1,0,-1
EndSplineSet
EndChar

StartChar: "+AMkA"
Encoding: 1049 1049 122
Width: 599
VWidth: 1365
Flags: W
LayerCount: 2
Fore
SplineSet
330 1000 m 1,0,-1
 330 900 l 1,1,-1
 150 900 l 1,2,-1
 150 1000 l 1,3,-1
 330 1000 l 1,0,-1
100 800 m 1,4,-1
 100 216 l 1,5,-1
 377 800 l 1,6,-1
 480 800 l 1,7,-1
 480 0 l 1,8,-1
 380 0 l 1,9,-1
 380 584 l 1,10,-1
 110 0 l 1,11,-1
 0 1 l 1,12,-1
 0 800 l 1,13,-1
 100 800 l 1,4,-1
EndSplineSet
EndChar

StartChar: "+AMoA"
Encoding: 1050 1050 123
Width: 599
VWidth: 1365
Flags: W
LayerCount: 2
Fore
SplineSet
100 800 m 1,0,-1
 100 439 l 1,1,-1
 357 800 l 1,2,-1
 480 800 l 1,3,-1
 290 533 l 1,4,-1
 480 0 l 1,5,-1
 374 0 l 1,6,-1
 219 434 l 1,7,-1
 100 267 l 1,8,-1
 100 0 l 1,9,-1
 0 0 l 1,10,-1
 0 800 l 1,11,-1
 100 800 l 1,0,-1
EndSplineSet
EndChar

StartChar: "+AMsA"
Encoding: 1051 1051 124
Width: 599
VWidth: 1365
Flags: W
LayerCount: 2
Fore
SplineSet
296 800 m 2,0,-1
 480 800 l 1,1,-1
 480 0 l 1,2,-1
 380 0 l 1,3,-1
 380 700 l 1,4,-1
 296 700 l 2,5,6
 260 700 260 700 253 665 c 2,7,-1
 141 115 l 2,8,9
 117 0 117 0 0 0 c 1,10,-1
 0 100 l 1,11,12
 36 100 36 100 43 135 c 2,13,-1
 158 684 l 1,14,15
 179 800 179 800 296 800 c 2,0,-1
EndSplineSet
EndChar

StartChar: "+AMwA"
Encoding: 1052 1052 125
Width: 839
VWidth: 1365
Flags: W
LayerCount: 2
Fore
SplineSet
100 800 m 1,0,-1
 360 400 l 1,1,-1
 620 800 l 1,2,-1
 720 800 l 1,3,-1
 720 0 l 1,4,-1
 620 0 l 1,5,-1
 620 617 l 1,6,-1
 360 217 l 1,7,-1
 100 617 l 1,8,-1
 100 0 l 1,9,-1
 0 0 l 1,10,-1
 0 800 l 1,11,-1
 100 800 l 1,0,-1
EndSplineSet
EndChar

StartChar: "+AM0A"
Encoding: 1053 1053 126
Width: 599
VWidth: 1365
Flags: W
LayerCount: 2
Fore
SplineSet
100 800 m 1,0,-1
 100 500 l 1,1,-1
 380 500 l 1,2,-1
 380 800 l 1,3,-1
 480 800 l 1,4,-1
 480 0 l 1,5,-1
 380 0 l 1,6,-1
 380 400 l 1,7,-1
 100 400 l 1,8,-1
 100 0 l 1,9,-1
 0 0 l 1,10,-1
 0 800 l 1,11,-1
 100 800 l 1,0,-1
EndSplineSet
EndChar

StartChar: "+AM4A"
Encoding: 1054 1054 127
Width: 599
VWidth: 1365
Flags: W
LayerCount: 2
Fore
SplineSet
240 800 m 256,0,1
 339 800 339 800 409.5 729.5 c 128,-1,2
 480 659 480 659 480 560 c 2,3,-1
 480 240 l 2,4,5
 480 141 480 141 409.5 70.5 c 128,-1,6
 339 0 339 0 240 0 c 256,7,8
 141 0 141 0 70.5 70.5 c 128,-1,9
 0 141 0 141 0 240 c 2,10,-1
 0 560 l 2,11,12
 0 659 0 659 70.5 729.5 c 128,-1,13
 141 800 141 800 240 800 c 256,0,1
100 560 m 2,14,-1
 100 240 l 2,15,16
 100 182 100 182 141 141 c 128,-1,17
 182 100 182 100 240 100 c 256,18,19
 298 100 298 100 339 141 c 128,-1,20
 380 182 380 182 380 240 c 2,21,-1
 380 560 l 2,22,23
 380 618 380 618 339 659 c 128,-1,24
 298 700 298 700 240 700 c 256,25,26
 182 700 182 700 141 659 c 128,-1,27
 100 618 100 618 100 560 c 2,14,-1
EndSplineSet
EndChar

StartChar: "+AM8A"
Encoding: 1055 1055 128
Width: 599
VWidth: 1365
Flags: W
LayerCount: 2
Fore
SplineSet
480 800 m 1,0,-1
 480 0 l 1,1,-1
 380 0 l 1,2,-1
 380 700 l 1,3,-1
 100 700 l 1,4,-1
 100 0 l 1,5,-1
 0 0 l 1,6,-1
 0 800 l 1,7,-1
 480 800 l 1,0,-1
EndSplineSet
EndChar

StartChar: "+ANAA"
Encoding: 1056 1056 129
Width: 599
VWidth: 1365
Flags: W
LayerCount: 2
Fore
SplineSet
240 800 m 2,0,1
 339 800 339 800 409.5 729.5 c 128,-1,2
 480 659 480 659 480 560 c 2,3,-1
 480 540 l 2,4,5
 480 441 480 441 409.5 370.5 c 128,-1,6
 339 300 339 300 240 300 c 2,7,-1
 100 300 l 1,8,-1
 100 0 l 1,9,-1
 0 0 l 1,10,-1
 0 800 l 1,11,-1
 240 800 l 2,0,1
100 700 m 1,12,-1
 100 400 l 1,13,-1
 240 400 l 2,14,15
 298 400 298 400 339 441 c 128,-1,16
 380 482 380 482 380 540 c 2,17,-1
 380 560 l 2,18,19
 380 618 380 618 339 659 c 128,-1,20
 298 700 298 700 240 700 c 2,21,-1
 100 700 l 1,12,-1
EndSplineSet
EndChar

StartChar: "+ANEA"
Encoding: 1057 1057 130
Width: 599
VWidth: 1365
Flags: W
LayerCount: 2
Fore
SplineSet
480 240 m 1,0,1
 480 141 480 141 409.5 70.5 c 128,-1,2
 339 0 339 0 240 0 c 256,3,4
 141 0 141 0 70.5 70.5 c 128,-1,5
 0 141 0 141 0 240 c 2,6,-1
 0 560 l 2,7,8
 0 659 0 659 70.5 729.5 c 128,-1,9
 141 800 141 800 240 800 c 256,10,11
 339 800 339 800 409.5 729.5 c 128,-1,12
 480 659 480 659 480 560 c 1,13,-1
 380 560 l 1,14,15
 380 618 380 618 339 659 c 128,-1,16
 298 700 298 700 240 700 c 256,17,18
 182 700 182 700 141 659 c 128,-1,19
 100 618 100 618 100 560 c 2,20,-1
 100 240 l 2,21,22
 100 182 100 182 141 141 c 128,-1,23
 182 100 182 100 240 100 c 256,24,25
 298 100 298 100 339 141 c 128,-1,26
 380 182 380 182 380 240 c 1,27,-1
 480 240 l 1,0,1
EndSplineSet
EndChar

StartChar: "+ANIA"
Encoding: 1058 1058 131
Width: 599
VWidth: 1365
Flags: W
LayerCount: 2
Fore
SplineSet
480 800 m 1,0,-1
 480 700 l 1,1,-1
 290 700 l 1,2,-1
 290 0 l 1,3,-1
 190 0 l 1,4,-1
 190 700 l 1,5,-1
 0 700 l 1,6,-1
 0 800 l 1,7,-1
 480 800 l 1,0,-1
EndSplineSet
EndChar

StartChar: "+ANMA"
Encoding: 1059 1059 132
Width: 599
VWidth: 1365
Flags: W
LayerCount: 2
Fore
SplineSet
101 800 m 1,0,-1
 164 404 l 2,1,2
 166 389 166 389 177.5 378 c 128,-1,3
 189 367 189 367 207 367 c 2,4,-1
 276 367 l 1,5,-1
 377 800 l 1,6,-1
 480 800 l 1,7,-1
 337 189 l 2,8,9
 320 120 320 120 259.5 60 c 128,-1,10
 199 0 199 0 99 0 c 1,11,-1
 100 99 l 1,12,13
 157 100 157 100 193.5 135 c 128,-1,14
 230 170 230 170 239 211 c 2,15,-1
 253 267 l 1,16,-1
 207 267 l 2,17,18
 148 267 148 267 110.5 304.5 c 128,-1,19
 73 342 73 342 65 388 c 2,20,-1
 0 800 l 1,21,-1
 101 800 l 1,0,-1
EndSplineSet
EndChar

StartChar: "+ANQA"
Encoding: 1060 1060 133
Width: 839
VWidth: 1365
Flags: W
LayerCount: 2
Fore
SplineSet
310 800 m 1,0,-1
 410 800 l 1,1,-1
 410 700 l 1,2,-1
 480 700 l 2,3,4
 579 700 579 700 649.5 629.5 c 128,-1,5
 720 559 720 559 720 460 c 2,6,-1
 720 440 l 2,7,8
 720 341 720 341 649.5 270.5 c 128,-1,9
 579 200 579 200 480 200 c 2,10,-1
 410 200 l 1,11,-1
 410 0 l 1,12,-1
 310 0 l 1,13,-1
 310 200 l 1,14,-1
 240 200 l 2,15,16
 141 200 141 200 70.5 270.5 c 128,-1,17
 0 341 0 341 0 440 c 2,18,-1
 0 460 l 2,19,20
 0 559 0 559 70.5 629.5 c 128,-1,21
 141 700 141 700 240 700 c 2,22,-1
 310 700 l 1,23,-1
 310 800 l 1,0,-1
100 460 m 2,24,-1
 100 440 l 2,25,26
 100 382 100 382 141 341 c 128,-1,27
 182 300 182 300 240 300 c 2,28,-1
 310 300 l 1,29,-1
 310 600 l 1,30,-1
 240 600 l 2,31,32
 182 600 182 600 141 559 c 128,-1,33
 100 518 100 518 100 460 c 2,24,-1
579 559 m 128,-1,35
 538 600 538 600 480 600 c 2,36,-1
 410 600 l 1,37,-1
 410 300 l 1,38,-1
 480 300 l 2,39,40
 538 300 538 300 579 341 c 128,-1,41
 620 382 620 382 620 440 c 2,42,-1
 620 460 l 2,43,34
 620 518 620 518 579 559 c 128,-1,35
EndSplineSet
EndChar

StartChar: "+ANUA"
Encoding: 1061 1061 134
Width: 599
VWidth: 1365
Flags: W
LayerCount: 2
Fore
SplineSet
103 800 m 1,0,-1
 240 519 l 1,1,-1
 370 800 l 1,2,-1
 480 800 l 1,3,-1
 295 400 l 1,4,-1
 480 0 l 1,5,-1
 370 0 l 1,6,-1
 240 281 l 1,7,-1
 103 0 l 1,8,-1
 0 0 l 1,9,-1
 185 400 l 1,10,-1
 2 800 l 1,11,-1
 103 800 l 1,0,-1
EndSplineSet
EndChar

StartChar: "+ANYA"
Encoding: 1062 1062 135
Width: 699
VWidth: 1365
Flags: W
LayerCount: 2
Fore
SplineSet
480 0 m 1,0,-1
 0 0 l 1,1,-1
 0 800 l 1,2,-1
 100 800 l 1,3,-1
 100 100 l 1,4,-1
 380 100 l 1,5,-1
 380 800 l 1,6,-1
 480 800 l 1,7,-1
 480 100 l 1,8,-1
 580 100 l 1,9,-1
 580 -100 l 1,10,-1
 480 -100 l 1,11,-1
 480 0 l 1,0,-1
EndSplineSet
EndChar

StartChar: "+ANcA"
Encoding: 1063 1063 136
Width: 599
VWidth: 1365
Flags: W
LayerCount: 2
Fore
SplineSet
100 800 m 1,0,-1
 100 540 l 2,1,2
 100 482 100 482 141 441 c 128,-1,3
 182 400 182 400 240 400 c 2,4,-1
 380 400 l 1,5,-1
 380 800 l 1,6,-1
 480 800 l 1,7,-1
 480 0 l 1,8,-1
 380 0 l 1,9,-1
 380 300 l 1,10,-1
 240 300 l 2,11,12
 141 300 141 300 70.5 370.5 c 128,-1,13
 0 441 0 441 0 540 c 2,14,-1
 0 800 l 1,15,-1
 100 800 l 1,0,-1
EndSplineSet
EndChar

StartChar: "+ANgA"
Encoding: 1064 1064 137
Width: 839
VWidth: 1365
Flags: W
LayerCount: 2
Fore
SplineSet
100 800 m 1,0,-1
 100 100 l 1,1,-1
 310 100 l 1,2,-1
 310 800 l 1,3,-1
 410 800 l 1,4,-1
 410 100 l 1,5,-1
 620 100 l 1,6,-1
 620 800 l 1,7,-1
 720 800 l 1,8,-1
 720 0 l 1,9,-1
 0 0 l 1,10,-1
 0 800 l 1,11,-1
 100 800 l 1,0,-1
EndSplineSet
EndChar

StartChar: "+ANkA"
Encoding: 1065 1065 138
Width: 939
VWidth: 1365
Flags: W
LayerCount: 2
Fore
SplineSet
720 0 m 1,0,-1
 0 0 l 1,1,-1
 0 800 l 1,2,-1
 100 800 l 1,3,-1
 100 100 l 1,4,-1
 310 100 l 1,5,-1
 310 800 l 1,6,-1
 410 800 l 1,7,-1
 410 100 l 1,8,-1
 620 100 l 1,9,-1
 620 800 l 1,10,-1
 720 800 l 1,11,-1
 720 100 l 1,12,-1
 820 100 l 1,13,-1
 820 -100 l 1,14,-1
 720 -100 l 1,15,-1
 720 0 l 1,0,-1
EndSplineSet
EndChar

StartChar: "+ANoA"
Encoding: 1066 1066 139
Width: 839
VWidth: 1365
Flags: W
LayerCount: 2
Fore
SplineSet
240 0 m 1,0,-1
 240 700 l 1,1,-1
 0 700 l 1,2,-1
 0 800 l 1,3,-1
 340 800 l 1,4,-1
 340 500 l 1,5,-1
 480 500 l 2,6,7
 579 500 579 500 649.5 429.5 c 128,-1,8
 720 359 720 359 720 260 c 2,9,-1
 720 240 l 2,10,11
 720 141 720 141 649.5 70.5 c 128,-1,12
 579 0 579 0 480 0 c 2,13,-1
 240 0 l 1,0,-1
480 100 m 2,14,15
 538 100 538 100 579 141 c 128,-1,16
 620 182 620 182 620 240 c 2,17,-1
 620 260 l 2,18,19
 620 318 620 318 579 359 c 128,-1,20
 538 400 538 400 480 400 c 2,21,-1
 340 400 l 1,22,-1
 340 100 l 1,23,-1
 480 100 l 2,14,15
EndSplineSet
EndChar

StartChar: "+ANsA"
Encoding: 1067 1067 140
Width: 839
VWidth: 1365
Flags: W
LayerCount: 2
Fore
SplineSet
620 800 m 1,0,-1
 720 800 l 1,1,-1
 720 0 l 1,2,-1
 620 0 l 1,3,-1
 620 800 l 1,0,-1
0 0 m 1,4,-1
 0 800 l 1,5,-1
 100 800 l 1,6,-1
 100 500 l 1,7,-1
 240 500 l 2,8,9
 339 500 339 500 409.5 429.5 c 128,-1,10
 480 359 480 359 480 260 c 2,11,-1
 480 240 l 2,12,13
 480 141 480 141 409.5 70.5 c 128,-1,14
 339 0 339 0 240 0 c 2,15,-1
 0 0 l 1,4,-1
240 100 m 2,16,17
 298 100 298 100 339 141 c 128,-1,18
 380 182 380 182 380 240 c 2,19,-1
 380 260 l 2,20,21
 380 318 380 318 339 359 c 128,-1,22
 298 400 298 400 240 400 c 2,23,-1
 100 400 l 1,24,-1
 100 100 l 1,25,-1
 240 100 l 2,16,17
EndSplineSet
EndChar

StartChar: "+ANwA"
Encoding: 1068 1068 141
Width: 599
VWidth: 1365
Flags: W
LayerCount: 2
Fore
SplineSet
0 0 m 1,0,-1
 0 800 l 1,1,-1
 100 800 l 1,2,-1
 100 500 l 1,3,-1
 240 500 l 2,4,5
 339 500 339 500 409.5 429.5 c 128,-1,6
 480 359 480 359 480 260 c 2,7,-1
 480 240 l 2,8,9
 480 141 480 141 409.5 70.5 c 128,-1,10
 339 0 339 0 240 0 c 2,11,-1
 0 0 l 1,0,-1
240 100 m 2,12,13
 298 100 298 100 339 141 c 128,-1,14
 380 182 380 182 380 240 c 2,15,-1
 380 260 l 2,16,17
 380 318 380 318 339 359 c 128,-1,18
 298 400 298 400 240 400 c 2,19,-1
 100 400 l 1,20,-1
 100 100 l 1,21,-1
 240 100 l 2,12,13
EndSplineSet
EndChar

StartChar: "+AN0A"
Encoding: 1069 1069 142
Width: 599
VWidth: 1365
Flags: W
LayerCount: 2
Fore
SplineSet
380 500 m 1,0,-1
 380 560 l 2,1,2
 380 618 380 618 339 659 c 128,-1,3
 298 700 298 700 240 700 c 256,4,5
 182 700 182 700 141 659 c 128,-1,6
 100 618 100 618 100 560 c 1,7,-1
 0 560 l 1,8,9
 0 659 0 659 70.5 729.5 c 128,-1,10
 141 800 141 800 240 800 c 256,11,12
 339 800 339 800 409.5 729.5 c 128,-1,13
 480 659 480 659 480 560 c 2,14,-1
 480 240 l 2,15,16
 480 141 480 141 409.5 70.5 c 128,-1,17
 339 0 339 0 240 0 c 256,18,19
 141 0 141 0 70.5 70.5 c 128,-1,20
 0 141 0 141 0 240 c 1,21,-1
 100 240 l 1,22,23
 100 182 100 182 141 141 c 128,-1,24
 182 100 182 100 240 100 c 256,25,26
 298 100 298 100 339 141 c 128,-1,27
 380 182 380 182 380 240 c 2,28,-1
 380 400 l 1,29,-1
 190 400 l 1,30,-1
 190 500 l 1,31,-1
 380 500 l 1,0,-1
EndSplineSet
EndChar

StartChar: "+AN4A"
Encoding: 1070 1070 143
Width: 839
VWidth: 1365
Flags: W
LayerCount: 2
Fore
SplineSet
340 560 m 2,0,-1
 340 240 l 2,1,2
 340 182 340 182 381 141 c 128,-1,3
 422 100 422 100 480 100 c 256,4,5
 538 100 538 100 579 141 c 128,-1,6
 620 182 620 182 620 240 c 2,7,-1
 620 560 l 2,8,9
 620 618 620 618 579 659 c 128,-1,10
 538 700 538 700 480 700 c 256,11,12
 422 700 422 700 381 659 c 128,-1,13
 340 618 340 618 340 560 c 2,0,-1
100 400 m 1,14,-1
 100 0 l 1,15,-1
 0 0 l 1,16,-1
 0 800 l 1,17,-1
 100 800 l 1,18,-1
 100 500 l 1,19,-1
 240 500 l 1,20,-1
 240 560 l 2,21,22
 240 659 240 659 310.5 729.5 c 128,-1,23
 381 800 381 800 480 800 c 256,24,25
 579 800 579 800 649.5 729.5 c 128,-1,26
 720 659 720 659 720 560 c 2,27,-1
 720 240 l 2,28,29
 720 141 720 141 649.5 70.5 c 128,-1,30
 579 0 579 0 480 0 c 256,31,32
 381 0 381 0 310.5 70.5 c 128,-1,33
 240 141 240 141 240 240 c 2,34,-1
 240 400 l 1,35,-1
 100 400 l 1,14,-1
EndSplineSet
EndChar

StartChar: "+AN8A"
Encoding: 1071 1071 144
Width: 599
VWidth: 1365
Flags: W
LayerCount: 2
Fore
SplineSet
240 700 m 2,0,1
 182 700 182 700 141 659 c 128,-1,2
 100 618 100 618 100 560 c 2,3,-1
 100 540 l 2,4,5
 100 482 100 482 141 441 c 128,-1,6
 182 400 182 400 240 400 c 2,7,-1
 380 400 l 1,8,-1
 380 700 l 1,9,-1
 240 700 l 2,0,1
143 320 m 1,10,11
 104 337 104 337 71 371 c 0,12,13
 0 441 0 441 0 540 c 2,14,-1
 0 560 l 2,15,16
 0 659 0 659 70.5 729.5 c 128,-1,17
 141 800 141 800 240 800 c 2,18,-1
 480 800 l 1,19,-1
 480 0 l 1,20,-1
 380 0 l 1,21,-1
 380 300 l 1,22,-1
 243 300 l 1,23,-1
 109 0 l 1,24,-1
 0 0 l 1,25,-1
 143 320 l 1,10,11
EndSplineSet
EndChar

StartChar: "+AOAA"
Encoding: 1072 1072 145
Width: 451
VWidth: 1365
Flags: W
LayerCount: 2
Fore
SplineSet
165 533 m 0,0,1
 233 533 233 533 281 485 c 128,-1,2
 329 437 329 437 329 369 c 2,3,-1
 329 135 l 2,4,5
 329 108 329 108 337.5 99 c 128,-1,6
 346 90 346 90 347 89 c 2,7,-1
 347 0 l 1,8,9
 313 10 313 10 298 25 c 128,-1,10
 283 40 283 40 279 46 c 1,11,12
 231 0 231 0 163 0 c 256,13,14
 96 0 96 0 48 48 c 128,-1,15
 0 96 0 96 0 165 c 0,16,17
 0 233 0 233 48 281 c 128,-1,18
 96 329 96 329 165 329 c 2,19,-1
 249 329 l 1,20,-1
 249 369 l 2,21,22
 249 404 249 404 224 428.5 c 128,-1,23
 199 453 199 453 164 453 c 128,-1,24
 129 453 129 453 104.5 428.5 c 128,-1,25
 80 404 80 404 80 369 c 1,26,-1
 0 369 l 1,27,28
 0 438 0 438 48 485.5 c 128,-1,29
 96 533 96 533 165 533 c 0,0,1
104.5 224 m 128,-1,31
 80 199 80 199 80 164 c 128,-1,32
 80 129 80 129 104.5 104.5 c 128,-1,33
 129 80 129 80 164 80 c 128,-1,34
 199 80 199 80 224 104.5 c 128,-1,35
 249 129 249 129 249 165 c 2,36,-1
 249 249 l 1,37,-1
 159 249 l 2,38,30
 129 249 129 249 104.5 224 c 128,-1,31
EndSplineSet
EndChar

StartChar: "+AOEA"
Encoding: 1073 1073 146
Width: 432
VWidth: 1365
Flags: W
LayerCount: 2
Fore
SplineSet
242 800 m 1,0,-1
 329 800 l 1,1,2
 318 759 318 759 278.5 719.5 c 128,-1,3
 239 680 239 680 171 680 c 2,4,-1
 165 680 l 2,5,6
 130 680 130 680 105 655.5 c 128,-1,7
 80 631 80 631 80 595 c 2,8,-1
 80 516 l 1,9,10
 119 533 119 533 176 533 c 128,-1,11
 233 533 233 533 281 485 c 128,-1,12
 329 437 329 437 329 369 c 2,13,-1
 329 165 l 2,14,15
 329 96 329 96 281 48 c 128,-1,16
 233 0 233 0 165 0 c 0,17,18
 96 0 96 0 48 48 c 128,-1,19
 0 96 0 96 0 165 c 2,20,-1
 0 595 l 2,21,22
 0 664 0 664 48 712 c 128,-1,23
 96 760 96 760 165 760 c 2,24,-1
 171 760 l 2,25,26
 206 760 206 760 221.5 775.5 c 128,-1,27
 237 791 237 791 242 800 c 1,0,-1
80 369 m 2,29,-1
 80 165 l 2,30,31
 80 130 80 130 104.5 105 c 128,-1,32
 129 80 129 80 164 80 c 128,-1,33
 199 80 199 80 224 104.5 c 128,-1,34
 249 129 249 129 249 165 c 2,35,-1
 249 369 l 2,36,37
 249 404 249 404 224 428.5 c 128,-1,38
 199 453 199 453 164 453 c 128,-1,39
 129 453 129 453 104.5 428.5 c 128,-1,28
 80 404 80 404 80 369 c 2,29,-1
EndSplineSet
EndChar

StartChar: "+AOIA"
Encoding: 1074 1074 147
Width: 432
VWidth: 1365
Flags: W
LayerCount: 2
Fore
SplineSet
165 800 m 0,0,1
 233 800 233 800 281 752 c 128,-1,2
 329 704 329 704 329 635 c 0,3,4
 329 567 329 567 300 538.5 c 128,-1,5
 271 510 271 510 261 502 c 1,6,7
 272 495 272 495 300.5 466 c 128,-1,8
 329 437 329 437 329 369 c 2,9,-1
 329 165 l 2,10,11
 329 96 329 96 281 48 c 128,-1,12
 233 0 233 0 165 0 c 0,13,14
 96 0 96 0 48 48 c 128,-1,15
 0 96 0 96 0 165 c 2,16,-1
 0 635 l 2,17,18
 0 704 0 704 48 752 c 128,-1,19
 96 800 96 800 165 800 c 0,0,1
104.5 695.5 m 128,-1,21
 80 671 80 671 80 635 c 2,22,-1
 80 510 l 1,23,-1
 196 557 l 2,24,25
 212 564 212 564 230.5 582.5 c 128,-1,26
 249 601 249 601 249 636 c 128,-1,27
 249 671 249 671 224 695.5 c 128,-1,28
 199 720 199 720 165 720 c 0,29,20
 129 720 129 720 104.5 695.5 c 128,-1,21
104.5 429.5 m 128,-1,31
 80 404 80 404 80 369 c 2,32,-1
 80 165 l 2,33,34
 80 130 80 130 104.5 105 c 128,-1,35
 129 80 129 80 165 80 c 0,36,37
 200 80 200 80 224.5 104.5 c 128,-1,38
 249 129 249 129 249 165 c 2,39,-1
 249 369 l 2,40,41
 249 404 249 404 224 429.5 c 128,-1,42
 199 455 199 455 165 455 c 0,43,30
 129 455 129 455 104.5 429.5 c 128,-1,31
EndSplineSet
EndChar

StartChar: "+AOMA"
Encoding: 1075 1075 148
Width: 432
VWidth: 1365
Flags: W
LayerCount: 2
Fore
SplineSet
165 533 m 0,0,1
 218 533 218 533 256.5 495 c 128,-1,2
 295 457 295 457 295 403 c 128,-1,3
 295 349 295 349 268 322.5 c 128,-1,4
 241 296 241 296 221 286 c 2,5,-1
 127 240 l 2,6,7
 114 234 114 234 97 216.5 c 128,-1,8
 80 199 80 199 80 164 c 128,-1,9
 80 129 80 129 104.5 104.5 c 128,-1,10
 129 80 129 80 176.5 80 c 128,-1,11
 224 80 224 80 236.5 104.5 c 128,-1,12
 249 129 249 129 249 165 c 1,13,-1
 329 165 l 1,14,15
 329 96 329 96 281 48 c 128,-1,16
 233 0 233 0 165 0 c 0,17,18
 96 0 96 0 48 48 c 128,-1,19
 0 96 0 96 0 165 c 0,20,21
 0 233 0 233 33.5 266.5 c 128,-1,22
 67 300 67 300 92 312 c 2,23,-1
 187 358 l 2,24,25
 194 362 194 362 204.5 372.5 c 128,-1,26
 215 383 215 383 215 403.5 c 128,-1,27
 215 424 215 424 200 438.5 c 128,-1,28
 185 453 185 453 164 453 c 128,-1,29
 143 453 143 453 128.5 438.5 c 128,-1,30
 114 424 114 424 114 403 c 1,31,-1
 34 403 l 1,32,33
 34 457 34 457 72.5 495 c 128,-1,34
 111 533 111 533 165 533 c 0,0,1
EndSplineSet
EndChar

StartChar: "+AOQA"
Encoding: 1076 1076 149
Width: 432
VWidth: 1365
Flags: W
LayerCount: 2
Fore
SplineSet
80 369 m 2,1,-1
 80 165 l 2,2,3
 80 130 80 130 104.5 105 c 128,-1,4
 129 80 129 80 164 80 c 128,-1,5
 199 80 199 80 224 104.5 c 128,-1,6
 249 129 249 129 249 165 c 2,7,-1
 249 369 l 2,8,9
 249 404 249 404 224 428.5 c 128,-1,10
 199 453 199 453 164 453 c 128,-1,11
 129 453 129 453 104.5 428.5 c 128,-1,0
 80 404 80 404 80 369 c 2,1,-1
48 752 m 1,12,13
 96 800 96 800 164 800 c 0,14,15
 233 800 233 800 281 752 c 128,-1,16
 329 704 329 704 329 635 c 2,17,-1
 329 165 l 2,18,19
 329 96 329 96 281 48 c 128,-1,20
 233 0 233 0 164 0 c 0,21,22
 96 0 96 0 48 48 c 128,-1,23
 0 96 0 96 0 165 c 2,24,-1
 0 369 l 2,25,26
 0 438 0 438 48 485.5 c 128,-1,27
 96 533 96 533 153 533 c 128,-1,28
 210 533 210 533 249 516 c 1,29,-1
 249 635 l 2,30,31
 249 670 249 670 224 695 c 128,-1,32
 199 720 199 720 164 720 c 128,-1,33
 129 720 129 720 105 695 c 1,34,-1
 48 752 l 1,12,13
EndSplineSet
EndChar

StartChar: "+AOUA"
Encoding: 1077 1077 150
Width: 432
VWidth: 1365
Flags: W
LayerCount: 2
Fore
SplineSet
80 165 m 2,0,1
 80 130 80 130 104.5 105 c 128,-1,2
 129 80 129 80 164 80 c 128,-1,3
 199 80 199 80 224 104.5 c 128,-1,4
 249 129 249 129 249 165 c 1,5,-1
 329 165 l 1,6,7
 329 96 329 96 281 48 c 128,-1,8
 233 0 233 0 164 0 c 0,9,10
 96 0 96 0 48 48 c 128,-1,11
 0 96 0 96 0 165 c 2,12,-1
 0 369 l 2,13,14
 0 438 0 438 48 485.5 c 128,-1,15
 96 533 96 533 164 533 c 0,16,17
 233 533 233 533 281 485 c 128,-1,18
 329 437 329 437 329 369 c 2,19,-1
 329 227 l 1,20,-1
 80 227 l 1,21,-1
 80 165 l 2,0,1
249 369 m 2,22,23
 249 404 249 404 224 428.5 c 128,-1,24
 199 453 199 453 164 453 c 128,-1,25
 129 453 129 453 104.5 428.5 c 128,-1,26
 80 404 80 404 80 369 c 2,27,-1
 80 307 l 1,28,-1
 249 307 l 1,29,-1
 249 369 l 2,22,23
EndSplineSet
EndChar

StartChar: "+AOYA"
Encoding: 1078 1078 151
Width: 592
VWidth: 1365
Flags: W
LayerCount: 2
Fore
SplineSet
0 533 m 1,0,-1
 92 533 l 1,1,-1
 197 347 l 1,2,-1
 205 347 l 1,3,-1
 205 533 l 1,4,-1
 285 533 l 1,5,-1
 285 347 l 1,6,-1
 291 347 l 1,7,-1
 397 533 l 1,8,-1
 489 533 l 1,9,-1
 361 307 l 1,10,-1
 489 0 l 1,11,-1
 402 0 l 1,12,-1
 291 267 l 1,13,-1
 285 267 l 1,14,-1
 285 0 l 1,15,-1
 205 0 l 1,16,-1
 205 267 l 1,17,-1
 198 267 l 1,18,-1
 87 0 l 1,19,-1
 0 0 l 1,20,-1
 128 307 l 1,21,-1
 0 533 l 1,0,-1
EndSplineSet
EndChar

StartChar: "+AOcA"
Encoding: 1079 1079 152
Width: 432
VWidth: 1365
Flags: W
LayerCount: 2
Fore
SplineSet
165 329 m 2,0,1
 190 329 190 329 208.5 347 c 128,-1,2
 227 365 227 365 227 391 c 0,3,4
 227 418 227 418 209 435.5 c 128,-1,5
 191 453 191 453 165 453 c 256,6,7
 139 453 139 453 120.5 435 c 128,-1,8
 102 417 102 417 102 391 c 1,9,-1
 23 391 l 1,10,11
 23 450 23 450 64 491.5 c 128,-1,12
 105 533 105 533 165 533 c 256,13,14
 224 533 224 533 265.5 491.5 c 128,-1,15
 307 450 307 450 307 391 c 0,16,17
 307 334 307 334 268 293 c 1,18,19
 275 288 275 288 281 281 c 0,20,21
 328 233 328 233 329 165 c 0,22,23
 329 96 329 96 281 48 c 128,-1,24
 233 0 233 0 165 0 c 0,25,26
 96 0 96 0 48 48 c 128,-1,27
 0 96 0 96 0 165 c 1,28,-1
 79 165 l 1,29,30
 79 130 79 130 104 105 c 128,-1,31
 129 80 129 80 165 80 c 0,32,33
 199 80 199 80 223.5 104.5 c 128,-1,34
 248 129 248 129 248 165 c 256,35,36
 248 200 248 200 223.5 224.5 c 128,-1,37
 199 249 199 249 165 249 c 2,38,-1
 125 249 l 1,39,-1
 125 329 l 1,40,-1
 165 329 l 2,0,1
EndSplineSet
EndChar

StartChar: "+AOgA"
Encoding: 1080 1080 153
Width: 451
VWidth: 1365
Flags: W
LayerCount: 2
Fore
SplineSet
297 34 m 0,1,2
 289 42 289 42 283 50 c 1,3,4
 282 49 282 49 281 48 c 0,5,6
 233 0 233 0 164 0 c 0,7,8
 96 0 96 0 48 48 c 128,-1,9
 0 96 0 96 0 165 c 2,10,-1
 0 533 l 1,11,-1
 80 533 l 1,12,-1
 80 165 l 2,13,14
 80 130 80 130 104.5 105 c 128,-1,15
 129 80 129 80 164 80 c 128,-1,16
 199 80 199 80 224 104.5 c 128,-1,17
 249 129 249 129 249 165 c 2,18,-1
 249 533 l 1,19,-1
 329 533 l 1,20,-1
 329 151 l 2,21,22
 329 120 329 120 347 97 c 1,23,-1
 347 0 l 1,24,0
 320 11 320 11 297 34 c 0,1,2
EndSplineSet
EndChar

StartChar: "+AOkA"
Encoding: 1081 1081 154
Width: 451
VWidth: 1365
Flags: W
LayerCount: 2
Fore
SplineSet
297 34 m 0,1,2
 289 42 289 42 283 50 c 1,3,4
 282 49 282 49 281 48 c 0,5,6
 233 0 233 0 164 0 c 0,7,8
 96 0 96 0 48 48 c 128,-1,9
 0 96 0 96 0 165 c 2,10,-1
 0 533 l 1,11,-1
 80 533 l 1,12,-1
 80 165 l 2,13,14
 80 130 80 130 104.5 105 c 128,-1,15
 129 80 129 80 164 80 c 128,-1,16
 199 80 199 80 224 104.5 c 128,-1,17
 249 129 249 129 249 165 c 2,18,-1
 249 533 l 1,19,-1
 329 533 l 1,20,-1
 329 151 l 2,21,22
 329 120 329 120 347 97 c 1,23,-1
 347 0 l 1,24,0
 320 11 320 11 297 34 c 0,1,2
120 613 m 1,25,-1
 120 693 l 1,26,-1
 209 693 l 1,27,-1
 209 613 l 1,28,-1
 120 613 l 1,25,-1
EndSplineSet
EndChar

StartChar: "+AOoA"
Encoding: 1082 1082 155
Width: 432
VWidth: 1365
Flags: W
LayerCount: 2
Fore
SplineSet
80 533 m 1,0,-1
 80 304 l 1,1,-1
 233 533 l 1,2,-1
 329 533 l 1,3,-1
 222 373 l 1,4,-1
 329 0 l 1,5,-1
 245 0 l 1,6,-1
 164 286 l 1,7,-1
 80 160 l 1,8,-1
 80 0 l 1,9,-1
 0 0 l 1,10,-1
 0 533 l 1,11,-1
 80 533 l 1,0,-1
EndSplineSet
EndChar

StartChar: "+AOsA"
Encoding: 1083 1083 156
Width: 432
VWidth: 1365
Flags: W
LayerCount: 2
Fore
SplineSet
201 533 m 2,0,-1
 329 533 l 1,1,-1
 329 0 l 1,2,-1
 249 0 l 1,3,-1
 249 453 l 1,4,-1
 201 453 l 2,5,6
 178 453 178 453 161.5 437 c 128,-1,7
 145 421 145 421 145 397 c 2,8,-1
 145 136 l 2,9,10
 145 79 145 79 105 39.5 c 128,-1,11
 65 0 65 0 9 0 c 2,12,-1
 0 0 l 1,13,-1
 0 80 l 1,14,-1
 9 80 l 2,15,16
 32 80 32 80 48.5 96.5 c 128,-1,17
 65 113 65 113 65 136 c 2,18,-1
 65 397 l 2,19,20
 65 454 65 454 104.5 493.5 c 128,-1,21
 144 533 144 533 201 533 c 2,0,-1
EndSplineSet
EndChar

StartChar: "+AOwA"
Encoding: 1084 1084 157
Width: 592
VWidth: 1365
Flags: W
LayerCount: 2
Fore
SplineSet
92 533 m 1,0,-1
 245 267 l 1,1,-1
 397 533 l 1,2,-1
 489 533 l 1,3,-1
 489 0 l 1,4,-1
 409 0 l 1,5,-1
 409 379 l 1,6,-1
 245 105 l 1,7,-1
 80 379 l 1,8,-1
 80 0 l 1,9,-1
 0 0 l 1,10,-1
 0 533 l 1,11,-1
 92 533 l 1,0,-1
EndSplineSet
EndChar

StartChar: "+AO0A"
Encoding: 1085 1085 158
Width: 431
VWidth: 1365
Flags: W
LayerCount: 2
Fore
SplineSet
80 267 m 1,0,-1
 80 0 l 1,1,-1
 0 0 l 1,2,-1
 0 533 l 1,3,-1
 80 533 l 1,4,-1
 80 347 l 1,5,-1
 248 347 l 1,6,-1
 248 533 l 1,7,-1
 328 533 l 1,8,-1
 328 0 l 1,9,-1
 248 0 l 1,10,-1
 248 267 l 1,11,-1
 80 267 l 1,0,-1
EndSplineSet
EndChar

StartChar: "+AO4A"
Encoding: 1086 1086 159
Width: 432
VWidth: 1365
Flags: W
LayerCount: 2
Fore
SplineSet
80 165 m 2,0,1
 80 130 80 130 104.5 105 c 128,-1,2
 129 80 129 80 164 80 c 128,-1,3
 199 80 199 80 224 104.5 c 128,-1,4
 249 129 249 129 249 165 c 2,5,-1
 249 369 l 2,6,7
 249 404 249 404 224 428.5 c 128,-1,8
 199 453 199 453 164 453 c 128,-1,9
 129 453 129 453 104.5 428.5 c 128,-1,10
 80 404 80 404 80 369 c 2,11,-1
 80 165 l 2,0,1
329 165 m 2,12,13
 329 96 329 96 281 48 c 128,-1,14
 233 0 233 0 164 0 c 0,15,16
 96 0 96 0 48 48 c 128,-1,17
 0 96 0 96 0 165 c 2,18,-1
 0 369 l 2,19,20
 0 438 0 438 48 485.5 c 128,-1,21
 96 533 96 533 164 533 c 0,22,23
 233 533 233 533 281 485 c 128,-1,24
 329 437 329 437 329 369 c 2,25,-1
 329 165 l 2,12,13
EndSplineSet
EndChar

StartChar: "+AO8A"
Encoding: 1087 1087 160
Width: 451
VWidth: 1365
Flags: W
LayerCount: 2
Fore
SplineSet
51 499 m 0,1,2
 59 491 59 491 65 483 c 1,3,4
 66 484 66 484 67 485 c 0,5,6
 115 533 115 533 183 533 c 0,7,8
 251 533 251 533 299 485 c 128,-1,9
 347 437 347 437 347 369 c 2,10,-1
 347 0 l 1,11,-1
 267 0 l 1,12,-1
 267 369 l 2,13,14
 267 404 267 404 242.5 428.5 c 128,-1,15
 218 453 218 453 183 453 c 128,-1,16
 148 453 148 453 123.5 428.5 c 128,-1,17
 99 404 99 404 99 369 c 2,18,-1
 99 0 l 1,19,-1
 19 0 l 1,20,-1
 19 383 l 2,21,22
 19 414 19 414 0 436 c 1,23,-1
 0 533 l 1,24,0
 28 522 28 522 51 499 c 0,1,2
EndSplineSet
EndChar

StartChar: "+APAA"
Encoding: 1088 1088 161
Width: 432
VWidth: 1365
Flags: W
LayerCount: 2
Fore
SplineSet
165 80 m 2,0,1
 200 80 200 80 224 105 c 256,2,3
 249 130 249 130 249 165 c 2,4,-1
 249 369 l 2,5,6
 249 404 249 404 224 429 c 256,7,8
 199 454 199 454 165 453 c 2,9,-1
 80 453 l 1,10,-1
 80 80 l 1,11,-1
 165 80 l 2,0,1
165 533 m 2,12,13
 233 533 233 533 281 485 c 128,-1,14
 329 437 329 437 329 369 c 2,15,-1
 329 165 l 2,16,17
 329 96 329 96 281 48 c 128,-1,18
 233 0 233 0 165 0 c 2,19,-1
 80 0 l 1,20,-1
 80 -267 l 1,21,-1
 0 -267 l 1,22,-1
 0 533 l 1,23,-1
 165 533 l 2,12,13
EndSplineSet
EndChar

StartChar: "+APEA"
Encoding: 1089 1089 162
Width: 432
VWidth: 1365
Flags: W
LayerCount: 2
Fore
SplineSet
80 165 m 2,0,1
 80 130 80 130 104.5 105 c 128,-1,2
 129 80 129 80 164 80 c 128,-1,3
 199 80 199 80 224 104.5 c 128,-1,4
 249 129 249 129 249 165 c 1,5,-1
 329 165 l 1,6,7
 329 96 329 96 281 48 c 128,-1,8
 233 0 233 0 164 0 c 0,9,10
 96 0 96 0 48 48 c 128,-1,11
 0 96 0 96 0 165 c 2,12,-1
 0 369 l 2,13,14
 0 438 0 438 48 485.5 c 128,-1,15
 96 533 96 533 164 533 c 0,16,17
 233 533 233 533 281 485 c 128,-1,18
 329 437 329 437 329 369 c 1,19,-1
 249 369 l 1,20,21
 249 404 249 404 224 428.5 c 128,-1,22
 199 453 199 453 164 453 c 128,-1,23
 129 453 129 453 104.5 428.5 c 128,-1,24
 80 404 80 404 80 369 c 2,25,-1
 80 165 l 2,0,1
EndSplineSet
EndChar

StartChar: "+APIA"
Encoding: 1090 1090 163
Width: 592
VWidth: 1365
Flags: W
LayerCount: 2
Fore
SplineSet
489 397 m 2,0,-1
 489 0 l 1,1,-1
 409 0 l 1,2,-1
 409 397 l 2,3,4
 409 420 409 420 392.5 436.5 c 128,-1,5
 376 453 376 453 353 453 c 0,6,7
 330 453 330 453 313.5 437 c 128,-1,8
 297 421 297 421 297 397 c 2,9,-1
 297 0 l 1,10,-1
 217 0 l 1,11,-1
 217 397 l 2,12,13
 217 420 217 420 200.5 436.5 c 128,-1,14
 184 453 184 453 161 453 c 0,15,16
 138 453 138 453 121.5 437 c 128,-1,17
 105 421 105 421 105 397 c 2,18,-1
 105 0 l 1,19,-1
 25 0 l 1,20,-1
 25 401 l 2,21,22
 25 424 25 424 8 440 c 0,23,24
 5 444 5 444 0 447 c 1,25,-1
 0 533 l 1,26,27
 37 525 37 525 65 497 c 0,28,29
 66 496 66 496 66 495 c 0,30,31
 105 533 105 533 161 533 c 0,32,33
 218 533 218 533 257 494 c 1,34,35
 296 533 296 533 353 533 c 256,36,37
 410 533 410 533 449.5 493.5 c 128,-1,38
 489 454 489 454 489 397 c 2,0,-1
EndSplineSet
EndChar

StartChar: "+APMA"
Encoding: 1091 1091 164
Width: 432
VWidth: 1365
Flags: W
LayerCount: 2
Fore
SplineSet
123 -1 m 1,0,-1
 0 533 l 1,1,-1
 82 533 l 1,2,-1
 165 167 l 1,3,-1
 247 533 l 1,4,-1
 329 533 l 1,5,-1
 175 -152 l 1,6,7
 168 -195 168 -195 137 -227 c 0,8,9
 97 -267 97 -267 40 -267 c 1,10,-1
 40 -187 l 1,11,12
 63 -187 63 -187 79 -170 c 0,13,14
 91 -158 91 -158 95 -143 c 2,15,-1
 123 -1 l 1,0,-1
EndSplineSet
EndChar

StartChar: "+APQA"
Encoding: 1092 1092 165
Width: 592
VWidth: 1365
Flags: W
LayerCount: 2
Fore
SplineSet
285 89 m 1,0,1
 303 80 303 80 325 80 c 0,2,3
 360 80 360 80 384.5 104.5 c 128,-1,4
 409 129 409 129 409 165 c 2,5,-1
 409 289 l 2,6,7
 409 324 409 324 384 348.5 c 128,-1,8
 359 373 359 373 325 373 c 0,9,10
 303 373 303 373 285 364 c 1,11,-1
 285 89 l 1,0,1
205 363 m 1,12,13
 187 373 187 373 165 373 c 0,14,15
 130 373 130 373 105 348.5 c 128,-1,16
 80 324 80 324 80 289 c 2,17,-1
 80 165 l 2,18,19
 80 130 80 130 104.5 105 c 128,-1,20
 129 80 129 80 165 80 c 0,21,22
 187 80 187 80 205 90 c 1,23,-1
 205 363 l 1,12,13
205 5 m 1,24,25
 186 0 186 0 164 0 c 0,26,27
 96 0 96 0 48 48 c 128,-1,28
 0 96 0 96 0 165 c 2,29,-1
 0 289 l 2,30,31
 0 358 0 358 48 405.5 c 128,-1,32
 96 453 96 453 164 453 c 0,33,34
 185 453 185 453 205 449 c 1,35,-1
 205 533 l 1,36,-1
 285 533 l 1,37,-1
 285 449 l 1,38,39
 304 454 304 454 325 453 c 0,40,41
 393 453 393 453 441 405 c 128,-1,42
 489 357 489 357 489 289 c 2,43,-1
 489 165 l 2,44,45
 489 96 489 96 441 48 c 128,-1,46
 393 0 393 0 325 0 c 0,47,48
 304 0 304 0 285 5 c 1,49,-1
 285 -267 l 1,50,-1
 205 -267 l 1,51,-1
 205 5 l 1,24,25
EndSplineSet
EndChar

StartChar: "+APUA"
Encoding: 1093 1093 166
Width: 432
VWidth: 1365
Flags: W
LayerCount: 2
Fore
SplineSet
88 533 m 1,0,-1
 165 364 l 1,1,-1
 241 533 l 1,2,-1
 329 533 l 1,3,-1
 208 267 l 1,4,-1
 329 0 l 1,5,-1
 241 0 l 1,6,-1
 165 169 l 1,7,-1
 88 0 l 1,8,-1
 0 0 l 1,9,-1
 116 267 l 1,10,-1
 0 533 l 1,11,-1
 88 533 l 1,0,-1
EndSplineSet
EndChar

StartChar: "+APYA"
Encoding: 1094 1094 167
Width: 512
VWidth: 1365
Flags: W
LayerCount: 2
Fore
SplineSet
289 17 m 0,1,2
 328 -23 328 -23 328 -79 c 1,3,-1
 409 -80 l 1,4,5
 409 10 409 10 346 73 c 0,6,7
 331 88 331 88 316 99 c 1,8,9
 329 130 329 130 329 165 c 2,10,-1
 329 533 l 1,11,-1
 249 533 l 1,12,-1
 249 165 l 2,13,14
 249 130 249 130 224 105 c 128,-1,15
 199 80 199 80 164 80 c 128,-1,16
 129 80 129 80 104.5 104.5 c 128,-1,17
 80 129 80 129 80 165 c 2,18,-1
 80 533 l 1,19,-1
 0 533 l 1,20,-1
 0 165 l 2,21,22
 0 96 0 96 48 48 c 128,-1,23
 96 0 96 0 164 0 c 0,24,25
 223 0 223 0 267 35 c 1,26,0
 278 28 278 28 289 17 c 0,1,2
EndSplineSet
EndChar

StartChar: "+APcA"
Encoding: 1095 1095 168
Width: 432
VWidth: 1365
Flags: W
LayerCount: 2
Fore
SplineSet
80 533 m 1,0,-1
 80 351 l 2,1,2
 80 316 80 316 105 291 c 256,3,4
 130 266 130 266 164 267 c 2,5,-1
 249 267 l 1,6,-1
 249 533 l 1,7,-1
 329 533 l 1,8,-1
 329 0 l 1,9,-1
 249 0 l 1,10,-1
 249 187 l 1,11,-1
 164 187 l 2,12,13
 96 187 96 187 48 235 c 128,-1,14
 0 283 0 283 0 351 c 2,15,-1
 0 533 l 1,16,-1
 80 533 l 1,0,-1
EndSplineSet
EndChar

StartChar: "+APgA"
Encoding: 1096 1096 169
Width: 592
VWidth: 1365
Flags: W
LayerCount: 2
Fore
SplineSet
0 136 m 2,0,-1
 0 533 l 1,1,-1
 80 533 l 1,2,-1
 80 136 l 2,3,4
 80 113 80 113 96.5 96.5 c 128,-1,5
 113 80 113 80 136 80 c 0,6,7
 159 80 159 80 175.5 96.5 c 128,-1,8
 192 113 192 113 192 136 c 2,9,-1
 192 533 l 1,10,-1
 272 533 l 1,11,-1
 272 136 l 2,12,13
 272 113 272 113 288.5 96.5 c 128,-1,14
 305 80 305 80 328 80 c 0,15,16
 351 80 351 80 367.5 96.5 c 128,-1,17
 384 113 384 113 384 136 c 2,18,-1
 384 533 l 1,19,-1
 464 533 l 1,20,-1
 464 133 l 2,21,22
 464 110 464 110 481 93 c 0,23,24
 484 89 484 89 489 86 c 1,25,-1
 489 0 l 1,26,27
 452 8 452 8 424 37 c 0,28,29
 423 38 l 0,30,31
 384 0 384 0 328 0 c 0,32,33
 271 0 271 0 232 39 c 1,34,35
 193 0 193 0 136 0 c 256,36,37
 79 0 79 0 39.5 39.5 c 128,-1,38
 0 79 0 79 0 136 c 2,0,-1
EndSplineSet
EndChar

StartChar: "+APkA"
Encoding: 1097 1097 170
Width: 672
VWidth: 1365
Flags: W
LayerCount: 2
Fore
SplineSet
0 136 m 2,0,-1
 0 533 l 1,1,-1
 80 533 l 1,2,-1
 80 136 l 2,3,4
 80 113 80 113 96.5 96.5 c 128,-1,5
 113 80 113 80 136 80 c 0,6,7
 159 80 159 80 175.5 96.5 c 128,-1,8
 192 113 192 113 192 136 c 2,9,-1
 192 533 l 1,10,-1
 272 533 l 1,11,-1
 272 136 l 2,12,13
 272 113 272 113 288.5 96.5 c 128,-1,14
 305 80 305 80 328 80 c 256,15,16
 351 80 351 80 367.5 96.5 c 128,-1,17
 384 113 384 113 384 136 c 2,18,-1
 384 533 l 1,19,-1
 464 533 l 1,20,-1
 464 136 l 2,21,22
 464 121 464 121 461 108 c 1,23,24
 485 94 485 94 506 73 c 0,25,26
 569 10 569 10 569 -80 c 1,27,-1
 488 -80 l 1,28,29
 488 -23 488 -23 449 17 c 0,30,31
 437 29 437 29 423 38 c 1,32,33
 384 0 384 0 328 0 c 0,34,35
 271 0 271 0 232 39 c 1,36,37
 193 0 193 0 136 0 c 256,38,39
 79 0 79 0 39.5 39.5 c 128,-1,40
 0 79 0 79 0 136 c 2,0,-1
EndSplineSet
EndChar

StartChar: "+APoA"
Encoding: 1098 1098 171
Width: 512
VWidth: 1365
Flags: W
LayerCount: 2
Fore
SplineSet
160 267 m 1,0,-1
 160 80 l 1,1,-1
 245 80 l 2,2,3
 280 80 280 80 304 105 c 256,4,5
 329 130 329 130 329 165 c 2,6,-1
 329 182 l 2,7,8
 329 217 329 217 304 242 c 256,9,10
 279 267 279 267 245 267 c 2,11,-1
 160 267 l 1,0,-1
160 347 m 1,12,-1
 245 347 l 2,13,14
 313 347 313 347 361 299 c 128,-1,15
 409 251 409 251 409 182 c 2,16,-1
 409 165 l 2,17,18
 409 96 409 96 361 48 c 128,-1,19
 313 0 313 0 245 0 c 2,20,-1
 80 0 l 1,21,-1
 80 453 l 1,22,-1
 0 453 l 1,23,-1
 0 533 l 1,24,-1
 160 533 l 1,25,-1
 160 347 l 1,12,-1
EndSplineSet
EndChar

StartChar: "+APsA"
Encoding: 1099 1099 172
Width: 592
VWidth: 1365
Flags: W
LayerCount: 2
Fore
SplineSet
80 267 m 1,0,-1
 80 80 l 1,1,-1
 165 80 l 2,2,3
 200 80 200 80 224 105 c 256,4,5
 249 130 249 130 249 165 c 2,6,-1
 249 182 l 2,7,8
 249 217 249 217 224 242 c 256,9,10
 199 267 199 267 165 267 c 2,11,-1
 80 267 l 1,0,-1
0 0 m 1,12,-1
 0 533 l 1,13,-1
 80 533 l 1,14,-1
 80 347 l 1,15,-1
 165 347 l 2,16,17
 233 347 233 347 281 299 c 128,-1,18
 329 251 329 251 329 182 c 2,19,-1
 329 165 l 2,20,21
 329 96 329 96 281 48 c 128,-1,22
 233 0 233 0 165 0 c 2,23,-1
 0 0 l 1,12,-1
409 0 m 1,24,-1
 409 533 l 1,25,-1
 489 533 l 1,26,-1
 489 0 l 1,27,-1
 409 0 l 1,24,-1
EndSplineSet
EndChar

StartChar: "+APwA"
Encoding: 1100 1100 173
Width: 432
VWidth: 1365
Flags: W
LayerCount: 2
Fore
SplineSet
80 267 m 1,0,-1
 80 80 l 1,1,-1
 165 80 l 2,2,3
 200 80 200 80 224 105 c 256,4,5
 249 130 249 130 249 165 c 2,6,-1
 249 182 l 2,7,8
 249 217 249 217 224 242 c 256,9,10
 199 267 199 267 165 267 c 2,11,-1
 80 267 l 1,0,-1
0 0 m 1,12,-1
 0 533 l 1,13,-1
 80 533 l 1,14,-1
 80 347 l 1,15,-1
 165 347 l 2,16,17
 233 347 233 347 281 299 c 128,-1,18
 329 251 329 251 329 182 c 2,19,-1
 329 165 l 2,20,21
 329 96 329 96 281 48 c 128,-1,22
 233 0 233 0 165 0 c 2,23,-1
 0 0 l 1,12,-1
EndSplineSet
EndChar

StartChar: "+AP0A"
Encoding: 1101 1101 174
Width: 432
VWidth: 1365
Flags: W
LayerCount: 2
Fore
SplineSet
249 307 m 1,0,-1
 249 369 l 2,1,2
 249 404 249 404 224 428.5 c 128,-1,3
 199 453 199 453 164 453 c 128,-1,4
 129 453 129 453 104.5 428.5 c 128,-1,5
 80 404 80 404 80 369 c 1,6,-1
 0 369 l 1,7,8
 0 438 0 438 48 485.5 c 128,-1,9
 96 533 96 533 165 533 c 0,10,11
 233 533 233 533 281 485 c 128,-1,12
 329 437 329 437 329 369 c 2,13,-1
 329 165 l 2,14,15
 329 96 329 96 281 48 c 128,-1,16
 233 0 233 0 165 0 c 0,17,18
 96 0 96 0 48 48 c 128,-1,19
 0 96 0 96 0 165 c 1,20,-1
 80 165 l 1,21,22
 80 130 80 130 104.5 105 c 128,-1,23
 129 80 129 80 164 80 c 128,-1,24
 199 80 199 80 224 104.5 c 128,-1,25
 249 129 249 129 249 165 c 2,26,-1
 249 227 l 1,27,-1
 125 227 l 1,28,-1
 125 307 l 1,29,-1
 249 307 l 1,0,-1
EndSplineSet
EndChar

StartChar: "+AP4A"
Encoding: 1102 1102 175
Width: 592
VWidth: 1365
Flags: W
LayerCount: 2
Fore
SplineSet
240 165 m 2,0,1
 240 130 240 130 264.5 105 c 128,-1,2
 289 80 289 80 324 80 c 128,-1,3
 359 80 359 80 384 104.5 c 128,-1,4
 409 129 409 129 409 165 c 2,5,-1
 409 369 l 2,6,7
 409 404 409 404 384 428.5 c 128,-1,8
 359 453 359 453 324 453 c 128,-1,9
 289 453 289 453 264.5 428.5 c 128,-1,10
 240 404 240 404 240 369 c 2,11,-1
 240 165 l 2,0,1
160 347 m 1,12,-1
 160 369 l 2,13,14
 160 438 160 438 208 485.5 c 128,-1,15
 256 533 256 533 324 533 c 0,16,17
 393 533 393 533 441 485 c 128,-1,18
 489 437 489 437 489 369 c 2,19,-1
 489 165 l 2,20,21
 489 96 489 96 441 48 c 128,-1,22
 393 0 393 0 324 0 c 0,23,24
 256 0 256 0 208 48 c 128,-1,25
 160 96 160 96 160 165 c 2,26,-1
 160 267 l 1,27,-1
 80 267 l 1,28,-1
 80 0 l 1,29,-1
 0 0 l 1,30,-1
 0 533 l 1,31,-1
 80 533 l 1,32,-1
 80 347 l 1,33,-1
 160 347 l 1,12,-1
EndSplineSet
EndChar

StartChar: "+AP8A"
Encoding: 1103 1103 176
Width: 432
VWidth: 1365
Flags: W
LayerCount: 2
Fore
SplineSet
249 267 m 1,0,-1
 249 453 l 1,1,-1
 164 453 l 2,2,3
 129 453 129 453 105 429 c 256,4,5
 80 404 80 404 80 369 c 2,6,-1
 80 351 l 2,7,8
 80 316 80 316 105 291 c 256,9,10
 130 266 130 266 164 267 c 2,11,-1
 249 267 l 1,0,-1
95 201 m 1,12,13
 70 213 70 213 48 235 c 0,14,15
 0 283 0 283 0 351 c 2,16,-1
 0 369 l 2,17,18
 0 438 0 438 48 485.5 c 128,-1,19
 96 533 96 533 164 533 c 2,20,-1
 329 533 l 1,21,-1
 329 0 l 1,22,-1
 249 0 l 1,23,-1
 249 187 l 1,24,-1
 176 187 l 1,25,-1
 89 0 l 1,26,-1
 0 0 l 1,27,-1
 95 201 l 1,12,13
EndSplineSet
EndChar

StartChar: "+ALgA"
Encoding: 1105 1105 177
Width: 432
VWidth: 1365
Flags: W
LayerCount: 2
Fore
SplineSet
80 165 m 2,0,1
 80 130 80 130 104.5 105 c 128,-1,2
 129 80 129 80 164 80 c 128,-1,3
 199 80 199 80 224 104.5 c 128,-1,4
 249 129 249 129 249 165 c 1,5,-1
 329 165 l 1,6,7
 329 96 329 96 281 48 c 128,-1,8
 233 0 233 0 164 0 c 0,9,10
 96 0 96 0 48 48 c 128,-1,11
 0 96 0 96 0 165 c 2,12,-1
 0 369 l 2,13,14
 0 438 0 438 48 485.5 c 128,-1,15
 96 533 96 533 164 533 c 0,16,17
 233 533 233 533 281 485 c 128,-1,18
 329 437 329 437 329 369 c 2,19,-1
 329 227 l 1,20,-1
 80 227 l 1,21,-1
 80 165 l 2,0,1
249 369 m 2,22,23
 249 404 249 404 224 428.5 c 128,-1,24
 199 453 199 453 164 453 c 128,-1,25
 129 453 129 453 104.5 428.5 c 128,-1,26
 80 404 80 404 80 369 c 2,27,-1
 80 307 l 1,28,-1
 249 307 l 1,29,-1
 249 369 l 2,22,23
EndSplineSet
EndChar
